<?xml version="1.0" encoding="UTF-8" standalone="no"?>
<!-- Created with Inkscape (http://www.inkscape.org/) -->

<svg
   width="2000"
   height="827"
   viewBox="0 0 2000 827"
   version="1.1"
   id="svg5"
   inkscape:version="1.2.2 (732a01da63, 2022-12-09)"
   sodipodi:docname="accents latte.svg"
   xml:space="preserve"
   xmlns:inkscape="http://www.inkscape.org/namespaces/inkscape"
   xmlns:sodipodi="http://sodipodi.sourceforge.net/DTD/sodipodi-0.dtd"
   xmlns="http://www.w3.org/2000/svg"
   xmlns:svg="http://www.w3.org/2000/svg"><sodipodi:namedview
     id="namedview7"
     pagecolor="#ffffff"
     bordercolor="#000000"
     borderopacity="0.25"
     inkscape:showpageshadow="2"
     inkscape:pageopacity="0.0"
     inkscape:pagecheckerboard="0"
     inkscape:deskcolor="#d1d1d1"
     inkscape:document-units="px"
     showgrid="false"
     showguides="true"
     inkscape:zoom="0.52221046"
     inkscape:cx="1085.7691"
     inkscape:cy="413.62634"
     inkscape:window-width="1920"
     inkscape:window-height="1009"
     inkscape:window-x="-8"
     inkscape:window-y="-8"
     inkscape:window-maximized="1"
     inkscape:current-layer="layer1"><sodipodi:guide
       position="249.99999,1550.7708"
       orientation="-1,0"
       id="guide182"
       inkscape:locked="false"
       inkscape:label=""
       inkscape:color="rgb(0,134,229)" /><sodipodi:guide
       position="499.99999,1701.1941"
       orientation="-1,0"
       id="guide184"
       inkscape:locked="false"
       inkscape:label=""
       inkscape:color="rgb(0,134,229)" /><sodipodi:guide
       position="749.99999,1800.7708"
       orientation="-1,0"
       id="guide186"
       inkscape:locked="false"
       inkscape:label=""
       inkscape:color="rgb(0,134,229)" /><sodipodi:guide
       position="999.99999,1750.9824"
       orientation="-1,0"
       id="guide188"
       inkscape:locked="false"
       inkscape:label=""
       inkscape:color="rgb(0,134,229)" /><sodipodi:guide
       position="1250,1601.6174"
       orientation="-1,0"
       id="guide190"
       inkscape:locked="false"
       inkscape:label=""
       inkscape:color="rgb(0,134,229)" /><sodipodi:guide
       position="1500,1427.3581"
       orientation="-1,0"
       id="guide192"
       inkscape:locked="false"
       inkscape:label=""
       inkscape:color="rgb(0,134,229)" /><sodipodi:guide
       position="1750,1318.2067"
       orientation="-1,0"
       id="guide194"
       inkscape:locked="false"
       inkscape:label=""
       inkscape:color="rgb(0,134,229)" /><sodipodi:guide
       position="59.363024,1550.7708"
       orientation="0,1"
       id="guide196"
       inkscape:locked="false"
       inkscape:label=""
       inkscape:color="rgb(0,134,229)" /><sodipodi:guide
       position="1750,1050.7708"
       orientation="0,1"
       id="guide198"
       inkscape:locked="false"
       inkscape:label=""
       inkscape:color="rgb(0,134,229)" /><sodipodi:guide
       position="-1.5258789e-05,1300.7708"
       orientation="0,1"
       id="guide916"
       inkscape:locked="false"
       inkscape:label=""
       inkscape:color="rgb(0,134,229)" /><sodipodi:guide
       position="101.49165,413.5"
       orientation="0,1"
       id="guide379"
       inkscape:locked="false"
       inkscape:label=""
       inkscape:color="rgb(0,134,229)" /></sodipodi:namedview><defs
     id="defs2"><rect
       x="173.67039"
       y="173.67039"
       width="363.30222"
       height="168.93616"
       id="rect704" /><rect
       x="173.67039"
       y="173.67039"
       width="363.30222"
       height="168.93616"
       id="rect764" /><rect
       x="173.67039"
       y="173.67039"
       width="363.30222"
       height="168.93616"
       id="rect770" /><rect
       x="173.67039"
       y="173.67039"
       width="363.30222"
       height="168.93616"
       id="rect784" /><rect
       x="173.67039"
       y="173.67039"
       width="363.30222"
       height="168.93616"
       id="rect786" /><rect
       x="173.67039"
       y="173.67039"
       width="363.30222"
       height="168.93616"
       id="rect788" /><rect
       x="173.67039"
       y="173.67039"
       width="363.30222"
       height="168.93616"
       id="rect794" /><rect
       x="173.67039"
       y="173.67039"
       width="363.30222"
       height="168.93616"
       id="rect800" /><rect
       x="173.67039"
       y="173.67039"
       width="363.30222"
       height="168.93616"
       id="rect806" /><rect
       x="173.67039"
       y="173.67039"
       width="363.30222"
       height="168.93616"
       id="rect812" /><rect
       x="173.67039"
       y="173.67039"
       width="363.30222"
       height="168.93616"
       id="rect826" /><rect
       x="173.67039"
       y="173.67039"
       width="363.30222"
       height="168.93616"
       id="rect828" /><rect
       x="173.67039"
       y="173.67039"
       width="363.30222"
       height="168.93616"
       id="rect830" /><rect
       x="173.67039"
       y="173.67039"
       width="363.30222"
       height="168.93616"
       id="rect860" /><rect
       x="173.67039"
       y="173.67039"
       width="363.30222"
       height="168.93616"
       id="rect862" /><rect
       x="173.67039"
       y="173.67039"
       width="363.30222"
       height="168.93616"
       id="rect864" /><rect
       x="173.67039"
       y="173.67039"
       width="363.30222"
       height="168.93616"
       id="rect866" /><rect
       x="173.67039"
       y="173.67039"
       width="363.30222"
       height="168.93616"
       id="rect868" /><rect
       x="173.67039"
       y="173.67039"
       width="363.30222"
       height="168.93616"
       id="rect870" /><rect
       x="173.67039"
       y="173.67039"
       width="363.30222"
       height="168.93616"
       id="rect872" /><rect
       x="173.67039"
       y="173.67039"
       width="363.30222"
       height="168.93616"
       id="rect902" /><rect
       x="173.67039"
       y="173.67039"
       width="363.30222"
       height="168.93616"
       id="rect904" /><rect
       x="173.67039"
       y="173.67039"
       width="363.30222"
       height="168.93616"
       id="rect906" /><rect
       x="173.67039"
       y="173.67039"
       width="363.30222"
       height="168.93616"
       id="rect908" /><rect
       x="173.67039"
       y="173.67039"
       width="363.30222"
       height="168.93616"
       id="rect910" /><rect
       x="173.67039"
       y="173.67039"
       width="363.30222"
       height="168.93616"
       id="rect912" /><rect
       x="173.67039"
       y="173.67039"
       width="363.30222"
       height="168.93616"
       id="rect914" /><rect
       x="-195.32355"
       y="86.172157"
       width="250.8567"
       height="103.40658"
       id="rect502" /><rect
       x="-195.32355"
       y="86.172157"
       width="250.8567"
       height="103.40658"
       id="rect1071" /><rect
       x="-195.32355"
       y="86.172157"
       width="250.8567"
       height="103.40658"
       id="rect1179" /><rect
       x="-195.32355"
       y="86.172157"
       width="250.8567"
       height="103.40658"
       id="rect1237" /><rect
       x="-195.32355"
       y="86.172157"
       width="250.8567"
       height="103.40658"
       id="rect1243" /><rect
       x="-195.32355"
       y="86.172157"
       width="250.8567"
       height="103.40658"
       id="rect1249" /><rect
       x="-195.32355"
       y="86.172157"
       width="250.8567"
       height="103.40658"
       id="rect1255" /><rect
       x="-195.32355"
       y="86.172157"
       width="250.8567"
       height="103.40658"
       id="rect1261" /><rect
       x="-195.32355"
       y="86.172157"
       width="250.8567"
       height="103.40658"
       id="rect1267" /><rect
       x="-195.32355"
       y="86.172157"
       width="250.8567"
       height="103.40658"
       id="rect1273" /><rect
       x="-195.32355"
       y="86.172157"
       width="250.8567"
       height="103.40658"
       id="rect1279" /><rect
       x="-195.32355"
       y="86.172157"
       width="250.8567"
       height="103.40658"
       id="rect1285" /><rect
       x="-195.32355"
       y="86.172157"
       width="250.8567"
       height="103.40658"
       id="rect1291" /><rect
       x="-195.32355"
       y="86.172157"
       width="250.8567"
       height="103.40658"
       id="rect1297" /></defs><g
     inkscape:label="Layer 1"
     inkscape:groupmode="layer"
     id="layer1"
     transform="translate(-1.5258789e-5)"
     style="display:inline"><rect
       style="fill:#eff1f5;fill-opacity:1"
       id="rect978"
       width="2000"
       height="827"
       x="1.4362178"
       y="0.95746839"
       ry="50" /><rect
       style="fill:#4c4f69;stroke-width:0.0842431;fill-opacity:1"
       id="rect381"
       width="1776.9099"
       height="2.621989"
       x="111.54508"
       y="412.18903"
       ry="0" /><rect
       style="fill:#dc8a78;fill-opacity:1"
       id="rect558"
       width="152.65921"
       height="152.65921"
       x="173.67039"
       y="173.67039"
       ry="36.092976" /><rect
       style="fill:#dd7878;fill-opacity:1"
       id="rect560"
       width="152.65921"
       height="152.65921"
       x="423.67041"
       y="173.67039"
       ry="36.092976" /><rect
       style="fill:#ea76cb;fill-opacity:1"
       id="rect562"
       width="152.65921"
       height="152.65921"
       x="673.67041"
       y="173.67039"
       ry="36.092976" /><rect
       style="fill:#8839ef;fill-opacity:1"
       id="rect564"
       width="152.65921"
       height="152.65921"
       x="923.67041"
       y="173.67039"
       ry="36.092976" /><rect
       style="fill:#d20f39;fill-opacity:1"
       id="rect566"
       width="152.65921"
       height="152.65921"
       x="1173.6704"
       y="173.67039"
       ry="36.092976" /><rect
       style="fill:#e64553;fill-opacity:1"
       id="rect568"
       width="152.65921"
       height="152.65921"
       x="1423.6704"
       y="173.67039"
       ry="36.092976" /><rect
       style="fill:#fe640b;fill-opacity:1"
       id="rect570"
       width="152.65921"
       height="152.65921"
       x="1673.6704"
       y="173.67039"
       ry="36.092976" /><rect
       style="fill:#df8e1d;fill-opacity:1"
       id="rect572"
       width="152.65921"
       height="152.65921"
       x="173.67041"
       y="500"
       ry="36.092976" /><rect
       style="fill:#40a02b;fill-opacity:1"
       id="rect574"
       width="152.65921"
       height="152.65921"
       x="423.67041"
       y="500"
       ry="36.092976" /><rect
       style="fill:#179299;fill-opacity:1"
       id="rect576"
       width="152.65921"
       height="152.65921"
       x="673.67041"
       y="500"
       ry="36.092976" /><rect
       style="fill:#04a5e5;fill-opacity:1"
       id="rect578"
       width="152.65921"
       height="152.65921"
       x="923.67041"
       y="500"
       ry="36.092976" /><rect
       style="fill:#209fb5;fill-opacity:1"
       id="rect580"
       width="152.65921"
       height="152.65921"
       x="1173.6704"
       y="500"
       ry="36.092976" /><rect
       style="fill:#1e66f5;fill-opacity:1"
       id="rect582"
       width="152.65921"
       height="152.65921"
       x="1423.6704"
       y="500"
       ry="36.092976" /><rect
       style="fill:#7287fd;fill-opacity:1"
       id="rect584"
       width="152.65921"
       height="152.65921"
       x="1673.6704"
       y="500"
       ry="36.092976" /><text
       xml:space="preserve"
       transform="translate(345.67174,257.72294)"
       id="text500"
       style="font-size:40px;font-family:Consolas;-inkscape-font-specification:Consolas;text-align:start;white-space:pre;shape-inside:url(#rect502);display:inline;fill:#4c4f69;fill-opacity:1"
       x="-192.66434"
       y="0"><tspan
         x="-195.32422"
         y="120.87891"
         id="tspan5418">Rosewater</tspan></text><text
       xml:space="preserve"
       transform="translate(606.25197,258.0745)"
       id="text1069"
       style="font-size:40px;font-family:Consolas;-inkscape-font-specification:Consolas;text-align:start;white-space:pre;shape-inside:url(#rect1071);display:inline;fill:#4c4f69;fill-opacity:1"
       x="-192.66434"
       y="0"><tspan
         x="-195.32422"
         y="120.87891"
         id="tspan5420">Flamingo</tspan></text><text
       xml:space="preserve"
       transform="translate(900.41212,258.0745)"
       id="text1177"
       style="font-size:40px;font-family:Consolas;-inkscape-font-specification:Consolas;text-align:start;white-space:pre;shape-inside:url(#rect1179);display:inline;fill:#4c4f69;fill-opacity:1"
       x="-192.66434"
       y="0"><tspan
         x="-195.32422"
         y="120.87891"
         id="tspan5422">Pink</tspan></text><text
       xml:space="preserve"
       transform="translate(1141.0176,258.0745)"
       id="text1235"
       style="font-size:40px;font-family:Consolas;-inkscape-font-specification:Consolas;text-align:start;white-space:pre;shape-inside:url(#rect1237);display:inline;fill:#4c4f69;fill-opacity:1"
       x="-192.66434"
       y="0"><tspan
         x="-195.32422"
         y="120.87891"
         id="tspan5424">Mauve</tspan></text><text
       xml:space="preserve"
       transform="translate(1412.2871,258.0745)"
       id="text1241"
       style="font-size:40px;font-family:Consolas;-inkscape-font-specification:Consolas;text-align:start;white-space:pre;shape-inside:url(#rect1243);display:inline;fill:#4c4f69;fill-opacity:1"
       x="-192.66434"
       y="0"><tspan
         x="-195.32422"
         y="120.87891"
         id="tspan5426">Red</tspan></text><text
       xml:space="preserve"
       transform="translate(1630.4219,258.0745)"
       id="text1247"
       style="font-size:40px;font-family:Consolas;-inkscape-font-specification:Consolas;text-align:start;white-space:pre;shape-inside:url(#rect1249);display:inline;fill:#4c4f69;fill-opacity:1"
       x="-192.66434"
       y="0"><tspan
         x="-195.32422"
         y="120.87891"
         id="tspan5428">Maroon</tspan></text><text
       xml:space="preserve"
       transform="translate(1890.3535,258.0745)"
       id="text1253"
       style="font-size:40px;font-family:Consolas;-inkscape-font-specification:Consolas;text-align:start;white-space:pre;shape-inside:url(#rect1255);display:inline;fill:#4c4f69;fill-opacity:1"
       x="-192.66434"
       y="0"><tspan
         x="-195.32422"
         y="120.87891"
         id="tspan5430">Peach</tspan></text><text
       xml:space="preserve"
       transform="translate(379.69922,346.20432)"
       id="text1259"
       style="font-size:40px;font-family:Consolas;-inkscape-font-specification:Consolas;text-align:start;white-space:pre;shape-inside:url(#rect1261);display:inline;fill:#4c4f69;fill-opacity:1"
       x="-192.66434"
       y="0"><tspan
         x="-195.32422"
         y="120.87891"
         id="tspan5432">Yellow</tspan></text><text
       xml:space="preserve"
       transform="translate(641.25197,346.20432)"
       id="text1265"
       style="font-size:40px;font-family:Consolas;-inkscape-font-specification:Consolas;text-align:start;white-space:pre;shape-inside:url(#rect1267);display:inline;fill:#4c4f69;fill-opacity:1"
       x="-192.66434"
       y="0"><tspan
         x="-195.32422"
         y="120.87891"
         id="tspan5434">Green</tspan></text><text
       xml:space="preserve"
       transform="translate(901.95509,346.20432)"
       id="text1271"
       style="font-size:40px;font-family:Consolas;-inkscape-font-specification:Consolas;text-align:start;white-space:pre;shape-inside:url(#rect1273);display:inline;fill:#4c4f69;fill-opacity:1"
       x="-192.66434"
       y="0"><tspan
         x="-195.32422"
         y="120.87891"
         id="tspan5436">Teal</tspan></text><text
       xml:space="preserve"
       transform="translate(1161.9649,346.20432)"
       id="text1277"
       style="font-size:40px;font-family:Consolas;-inkscape-font-specification:Consolas;text-align:start;white-space:pre;shape-inside:url(#rect1279);display:inline;fill:#4c4f69;fill-opacity:1"
       x="-192.66434"
       y="0"><tspan
         x="-195.32422"
         y="120.87891"
         id="tspan5438">Sky</tspan></text><text
       xml:space="preserve"
       transform="translate(1357.4238,346.20432)"
       id="text1283"
       style="font-size:40px;font-family:Consolas;-inkscape-font-specification:Consolas;text-align:start;white-space:pre;shape-inside:url(#rect1285);display:inline;fill:#4c4f69;fill-opacity:1"
       x="-192.66434"
       y="0"><tspan
         x="-195.32422"
         y="120.87891"
         id="tspan5440">Sapphire</tspan></text><text
       xml:space="preserve"
       transform="translate(1650.9492,346.20432)"
       id="text1289"
       style="font-size:40px;font-family:Consolas;-inkscape-font-specification:Consolas;text-align:start;white-space:pre;shape-inside:url(#rect1291);display:inline;fill:#4c4f69;fill-opacity:1"
       x="-192.66434"
       y="0"><tspan
         x="-195.32422"
         y="120.87891"
         id="tspan5442">Blue</tspan></text><text
       xml:space="preserve"
       transform="translate(1856.0526,346.20432)"
       id="text1295"
       style="font-size:40px;font-family:Consolas;-inkscape-font-specification:Consolas;text-align:start;white-space:pre;shape-inside:url(#rect1297);display:inline;fill:#4c4f69;fill-opacity:1"
       x="-192.66434"
       y="0"><tspan
         x="-195.32422"
         y="120.87891"
         id="tspan5444">Lavender</tspan></text></g><g
     inkscape:groupmode="layer"
     id="layer2"
     inkscape:label="Layer 2"><path
       style="display:inline;fill:#4c4f69;stroke-width:0.0888906;fill-opacity:1"
       d="m 247.41611,307.18615 c -1.34736,-0.0449 -4.27634,-0.28501 -5.82234,-0.47735 -7.96834,-0.99136 -15.38373,-3.27063 -22.60043,-6.9467 -1.65492,-0.84299 -1.93337,-1.01367 -1.93337,-1.18506 0,-0.23722 0.34489,-2.63279 0.65829,-4.57239 0.77062,-4.76936 1.88262,-9.57727 3.20369,-13.85153 0.32039,-1.03665 0.58251,-1.91422 0.58245,-1.95014 -4e-5,-0.0359 -0.33005,-0.24249 -0.73334,-0.45905 -4.84895,-2.60374 -9.05553,-6.2555 -12.03871,-10.45091 -1.86485,-2.62264 -3.48205,-5.9312 -4.43635,-9.07618 -1.90898,-6.29122 -2.12675,-13.89395 -0.60953,-21.27997 1.13175,-5.50954 3.25521,-10.68453 6.15643,-15.00359 l 0.43509,-0.64774 -0.25461,-1.04118 c -0.98224,-4.01673 -1.70523,-8.19689 -2.1326,-12.33029 -0.23277,-2.2512 -0.27918,-6.47177 -0.0865,-7.86682 0.31336,-2.2688 0.58797,-3.08083 1.28662,-3.80434 0.81904,-0.84819 1.67538,-1.13581 3.12023,-1.04799 3.7403,0.22734 7.62798,1.25162 10.80891,2.84783 3.09306,1.5521 5.30693,3.23085 8.02822,6.08763 l 0.8769,0.92059 1.56758,-0.50318 c 5.19964,-1.66902 10.17952,-2.40701 16.19008,-2.3993 4.54637,0.006 8.0067,0.38537 11.76162,1.29002 0.8221,0.19807 1.50765,0.34608 1.52341,0.32891 0.0158,-0.0172 0.34718,-0.44156 0.73649,-0.9431 2.01595,-2.59728 4.13784,-4.5845 6.69,-6.26547 1.11469,-0.73419 3.74977,-2.05338 5.11121,-2.55882 1.44661,-0.53705 3.65215,-1.15836 4.31119,-1.21448 1.1523,-0.0981 2.3408,0.43184 3.04304,1.35691 0.62062,0.81755 1.52445,3.06411 2.07163,5.14922 1.2116,4.61704 1.33204,10.03556 0.33955,15.27595 l -0.23318,1.23122 0.93053,0.9466 c 7.59713,7.72826 11.62379,17.44835 11.32887,27.34711 -0.15998,5.36941 -1.36162,10.1184 -3.78883,14.97381 -1.99316,3.98715 -4.06522,6.8313 -7.4207,10.18582 -2.38595,2.38527 -4.40633,4.0249 -7.11537,5.77447 -0.58667,0.3789 -1.08089,0.7014 -1.09825,0.71668 -0.0174,0.0153 0.0912,0.66026 0.2412,1.43329 1.33333,6.87072 2.02405,13.22232 2.36333,21.73238 l 0.0449,1.1265 -1.04227,0.50379 c -9.81935,4.74631 -20.79801,7.02211 -32.0651,6.64685 z m 9.28907,-16.89565 c 1.22921,-0.42239 2.24118,-0.98545 3.24451,-1.80526 1.05298,-0.86037 1.98661,-1.93152 2.40751,-2.76213 l 0.21549,-0.42524 0.88597,0.58049 c 1.11159,0.72833 2.65349,1.46511 3.9215,1.87387 1.50863,0.48632 1.83935,0.33684 2.12793,-0.96179 0.48456,-2.18048 0.37286,-4.94166 -0.3046,-7.52863 -0.33612,-1.28352 -0.64444,-1.47278 -1.76895,-1.08589 -1.86024,0.64002 -3.45892,1.69427 -4.70695,3.10405 l -0.421,0.47556 -0.60066,-0.44457 c -1.85482,-1.37282 -4.00319,-2.40292 -6.99384,-3.35341 -1.98475,-0.63079 -2.13416,-0.54819 -2.41626,1.3357 -0.21068,1.40686 -0.21105,3.99015 0,5.24455 0.3014,1.79785 0.8354,3.47522 1.58391,4.97526 0.5496,1.10144 0.60362,1.1432 1.40392,1.0853 0.38874,-0.0281 0.9817,-0.15647 1.42225,-0.30786 z m 4.31121,-36.37719 c 0.91155,-0.2879 1.58823,-0.65147 2.49531,-1.34066 0.9903,-0.75247 1.3225,-0.84224 2.22742,-0.6019 0.86058,0.22857 1.92574,0.3002 2.54519,0.17116 1.57616,-0.32833 3.13944,-1.71811 4.02128,-3.57499 0.50013,-1.05315 0.62488,-2.1269 0.26324,-2.26568 -0.21078,-0.0809 -0.53257,0.1891 -1.04867,0.8798 -0.89933,1.20358 -1.41767,1.553 -2.80048,1.88782 -1.17306,0.28403 -2.0667,0.0961 -3.52171,-0.74056 -0.43797,-0.25184 -0.86609,-0.45789 -0.9514,-0.45789 -0.32369,0 -0.61288,0.22282 -1.22115,0.94089 -1.13041,1.33447 -2.15322,1.96089 -3.60907,2.21039 -1.75614,0.30096 -2.74737,0.14409 -4.24902,-0.67247 -1.3525,-0.73544 -1.96994,-0.8559 -2.19845,-0.42892 -0.21578,0.40322 0.25279,1.22185 1.22361,2.13767 1.04819,0.9888 2.33024,1.67874 3.71271,1.998 0.77476,0.17892 2.31688,0.10821 3.11119,-0.14266 z m 3.11116,-9.05781 c 0.74749,-0.32736 1.64221,-1.26672 2.828,-2.96909 0.88274,-1.26727 1.029,-1.67129 0.86,-2.37574 -0.0742,-0.30947 -0.21533,-0.56687 -0.44037,-0.80345 -0.41198,-0.43307 -0.0995,-0.42831 -5.45061,-0.083 -3.05275,0.19702 -4.14213,0.29703 -4.35955,0.4002 -0.79265,0.37613 -0.8852,1.70213 -0.1766,2.52997 0.17254,0.20157 0.7994,0.73841 1.39304,1.19297 2.86685,2.1952 4.06679,2.66837 5.34609,2.1081 z m -29.84062,-11.33203 c 0.13203,-0.0685 0.45319,-0.38743 0.71369,-0.70885 2.86515,-3.5352 7.38812,-4.9368 11.79278,-3.65441 1.82456,0.53121 3.33193,1.43353 4.99562,2.99043 0.73361,0.68652 1.06248,0.80485 1.56892,0.56453 0.68298,-0.32409 0.7989,-0.8655 0.42458,-1.98276 -0.59037,-1.76215 -1.53511,-3.3153 -2.82669,-4.64709 -1.63396,-1.68482 -3.42618,-2.69134 -5.63287,-3.16342 -0.89939,-0.19241 -3.04008,-0.21559 -3.86253,-0.0418 -3.29825,0.69689 -5.97227,2.77832 -7.4959,5.83474 -0.49751,0.99802 -0.92693,2.29159 -1.08404,3.26551 -0.12769,0.79151 0.002,1.20587 0.46334,1.48752 0.34627,0.21111 0.61286,0.22683 0.9431,0.0556 z m 31.99423,-3.47726 c 2.2558,-2.25579 4.8764,-3.29185 7.89103,-3.11972 2.18481,0.12474 4.28776,0.9468 5.98143,2.3382 1.09467,0.8993 1.26146,1.00538 1.5806,1.00538 0.38753,0 0.81491,-0.36357 0.8885,-0.75585 0.0699,-0.37261 -0.18115,-1.16117 -0.68059,-2.13777 -2.10153,-4.10933 -6.60545,-6.19184 -10.96366,-5.06936 -3.27358,0.84313 -5.86319,3.47066 -6.70622,6.80444 -0.22459,0.88808 -0.23226,1.08399 -0.0558,1.42521 0.17132,0.33128 0.36217,0.4384 0.78709,0.44175 0.31789,0.002 0.41021,-0.0649 1.27763,-0.93228 z"
       id="path994"
       transform="translate(-1.5258789e-5)" /><path
       style="display:inline;fill:#4c4f69;stroke-width:0.0888906;fill-opacity:1"
       d="m 497.41611,307.18615 c -1.34736,-0.0449 -4.27634,-0.28501 -5.82234,-0.47735 -7.96834,-0.99136 -15.38373,-3.27063 -22.60043,-6.9467 -1.65492,-0.84299 -1.93337,-1.01367 -1.93337,-1.18506 0,-0.23722 0.34489,-2.63279 0.65829,-4.57239 0.77062,-4.76936 1.88262,-9.57727 3.20369,-13.85153 0.32039,-1.03665 0.58251,-1.91422 0.58245,-1.95014 -4e-5,-0.0359 -0.33005,-0.24249 -0.73334,-0.45905 -4.84895,-2.60374 -9.05553,-6.2555 -12.03871,-10.45091 -1.86485,-2.62264 -3.48205,-5.9312 -4.43635,-9.07618 -1.90898,-6.29122 -2.12675,-13.89395 -0.60953,-21.27997 1.13175,-5.50954 3.25521,-10.68453 6.15643,-15.00359 l 0.43509,-0.64774 -0.25461,-1.04118 c -0.98224,-4.01673 -1.70523,-8.19689 -2.1326,-12.33029 -0.23277,-2.2512 -0.27918,-6.47177 -0.0865,-7.86682 0.31336,-2.2688 0.58797,-3.08083 1.28662,-3.80434 0.81904,-0.84819 1.67538,-1.13581 3.12023,-1.04799 3.7403,0.22734 7.62798,1.25162 10.80891,2.84783 3.09306,1.5521 5.30693,3.23085 8.02822,6.08763 l 0.8769,0.92059 1.56758,-0.50318 c 5.19964,-1.66902 10.17952,-2.40701 16.19008,-2.3993 4.54637,0.006 8.0067,0.38537 11.76162,1.29002 0.8221,0.19807 1.50765,0.34608 1.52341,0.32891 0.0158,-0.0172 0.34718,-0.44156 0.73649,-0.9431 2.01595,-2.59728 4.13784,-4.5845 6.69,-6.26547 1.11469,-0.73419 3.74977,-2.05338 5.11121,-2.55882 1.44661,-0.53705 3.65215,-1.15836 4.31119,-1.21448 1.1523,-0.0981 2.3408,0.43184 3.04304,1.35691 0.62062,0.81755 1.52445,3.06411 2.07163,5.14922 1.2116,4.61704 1.33204,10.03556 0.33955,15.27595 l -0.23318,1.23122 0.93053,0.9466 c 7.59713,7.72826 11.62379,17.44835 11.32887,27.34711 -0.15998,5.36941 -1.36162,10.1184 -3.78883,14.97381 -1.99316,3.98715 -4.06522,6.8313 -7.4207,10.18582 -2.38595,2.38527 -4.40633,4.0249 -7.11537,5.77447 -0.58667,0.3789 -1.08089,0.7014 -1.09825,0.71668 -0.0174,0.0153 0.0912,0.66026 0.2412,1.43329 1.33333,6.87072 2.02405,13.22232 2.36333,21.73238 l 0.0449,1.1265 -1.04227,0.50379 c -9.81935,4.74631 -20.79801,7.02211 -32.0651,6.64685 z m 9.28907,-16.89565 c 1.22921,-0.42239 2.24118,-0.98545 3.24451,-1.80526 1.05298,-0.86037 1.98661,-1.93152 2.40751,-2.76213 l 0.21549,-0.42524 0.88597,0.58049 c 1.11159,0.72833 2.65349,1.46511 3.9215,1.87387 1.50863,0.48632 1.83935,0.33684 2.12793,-0.96179 0.48456,-2.18048 0.37286,-4.94166 -0.3046,-7.52863 -0.33612,-1.28352 -0.64444,-1.47278 -1.76895,-1.08589 -1.86024,0.64002 -3.45892,1.69427 -4.70695,3.10405 l -0.421,0.47556 -0.60066,-0.44457 c -1.85482,-1.37282 -4.00319,-2.40292 -6.99384,-3.35341 -1.98475,-0.63079 -2.13416,-0.54819 -2.41626,1.3357 -0.21068,1.40686 -0.21105,3.99015 0,5.24455 0.3014,1.79785 0.8354,3.47522 1.58391,4.97526 0.5496,1.10144 0.60362,1.1432 1.40392,1.0853 0.38874,-0.0281 0.9817,-0.15647 1.42225,-0.30786 z m 4.31121,-36.37719 c 0.91155,-0.2879 1.58823,-0.65147 2.49531,-1.34066 0.9903,-0.75247 1.3225,-0.84224 2.22742,-0.6019 0.86058,0.22857 1.92574,0.3002 2.54519,0.17116 1.57616,-0.32833 3.13944,-1.71811 4.02128,-3.57499 0.50013,-1.05315 0.62488,-2.1269 0.26324,-2.26568 -0.21078,-0.0809 -0.53257,0.1891 -1.04867,0.8798 -0.89933,1.20358 -1.41767,1.553 -2.80048,1.88782 -1.17306,0.28403 -2.0667,0.0961 -3.52171,-0.74056 -0.43797,-0.25184 -0.86609,-0.45789 -0.9514,-0.45789 -0.32369,0 -0.61288,0.22282 -1.22115,0.94089 -1.13041,1.33447 -2.15322,1.96089 -3.60907,2.21039 -1.75614,0.30096 -2.74737,0.14409 -4.24902,-0.67247 -1.3525,-0.73544 -1.96994,-0.8559 -2.19845,-0.42892 -0.21578,0.40322 0.25279,1.22185 1.22361,2.13767 1.04819,0.9888 2.33024,1.67874 3.71271,1.998 0.77476,0.17892 2.31688,0.10821 3.11119,-0.14266 z m 3.11116,-9.05781 c 0.74749,-0.32736 1.64221,-1.26672 2.828,-2.96909 0.88274,-1.26727 1.029,-1.67129 0.86,-2.37574 -0.0742,-0.30947 -0.21533,-0.56687 -0.44037,-0.80345 -0.41198,-0.43307 -0.0995,-0.42831 -5.45061,-0.083 -3.05275,0.19702 -4.14213,0.29703 -4.35955,0.4002 -0.79265,0.37613 -0.8852,1.70213 -0.1766,2.52997 0.17254,0.20157 0.7994,0.73841 1.39304,1.19297 2.86685,2.1952 4.06679,2.66837 5.34609,2.1081 z m -29.84062,-11.33203 c 0.13203,-0.0685 0.45319,-0.38743 0.71369,-0.70885 2.86515,-3.5352 7.38812,-4.9368 11.79278,-3.65441 1.82456,0.53121 3.33193,1.43353 4.99562,2.99043 0.73361,0.68652 1.06248,0.80485 1.56892,0.56453 0.68298,-0.32409 0.7989,-0.8655 0.42458,-1.98276 -0.59037,-1.76215 -1.53511,-3.3153 -2.82669,-4.64709 -1.63396,-1.68482 -3.42618,-2.69134 -5.63287,-3.16342 -0.89939,-0.19241 -3.04008,-0.21559 -3.86253,-0.0418 -3.29825,0.69689 -5.97227,2.77832 -7.4959,5.83474 -0.49751,0.99802 -0.92693,2.29159 -1.08404,3.26551 -0.12769,0.79151 0.002,1.20587 0.46334,1.48752 0.34627,0.21111 0.61286,0.22683 0.9431,0.0556 z m 31.99423,-3.47726 c 2.2558,-2.25579 4.8764,-3.29185 7.89103,-3.11972 2.18481,0.12474 4.28776,0.9468 5.98143,2.3382 1.09467,0.8993 1.26146,1.00538 1.5806,1.00538 0.38753,0 0.81491,-0.36357 0.8885,-0.75585 0.0699,-0.37261 -0.18115,-1.16117 -0.68059,-2.13777 -2.10153,-4.10933 -6.60545,-6.19184 -10.96366,-5.06936 -3.27358,0.84313 -5.86319,3.47066 -6.70622,6.80444 -0.22459,0.88808 -0.23226,1.08399 -0.0558,1.42521 0.17132,0.33128 0.36217,0.4384 0.78709,0.44175 0.31789,0.002 0.41021,-0.0649 1.27763,-0.93228 z"
       id="path997" /><path
       style="display:inline;fill:#4c4f69;stroke-width:0.0888906;fill-opacity:1"
       d="m 747.41611,307.18615 c -1.34736,-0.0449 -4.27634,-0.28501 -5.82234,-0.47735 -7.96834,-0.99136 -15.38373,-3.27063 -22.60043,-6.9467 -1.65492,-0.84299 -1.93337,-1.01367 -1.93337,-1.18506 0,-0.23722 0.34489,-2.63279 0.65829,-4.57239 0.77062,-4.76936 1.88262,-9.57727 3.20369,-13.85153 0.32039,-1.03665 0.58251,-1.91422 0.58245,-1.95014 -4e-5,-0.0359 -0.33005,-0.24249 -0.73334,-0.45905 -4.84895,-2.60374 -9.05553,-6.2555 -12.03871,-10.45091 -1.86485,-2.62264 -3.48205,-5.9312 -4.43635,-9.07618 -1.90898,-6.29122 -2.12675,-13.89395 -0.60953,-21.27997 1.13175,-5.50954 3.25521,-10.68453 6.15643,-15.00359 l 0.43509,-0.64774 -0.25461,-1.04118 c -0.98224,-4.01673 -1.70523,-8.19689 -2.1326,-12.33029 -0.23277,-2.2512 -0.27918,-6.47177 -0.0865,-7.86682 0.31336,-2.2688 0.58797,-3.08083 1.28662,-3.80434 0.81904,-0.84819 1.67538,-1.13581 3.12023,-1.04799 3.7403,0.22734 7.62798,1.25162 10.80891,2.84783 3.09306,1.5521 5.30693,3.23085 8.02822,6.08763 l 0.8769,0.92059 1.56758,-0.50318 c 5.19964,-1.66902 10.17952,-2.40701 16.19008,-2.3993 4.54637,0.006 8.0067,0.38537 11.76162,1.29002 0.8221,0.19807 1.50765,0.34608 1.52341,0.32891 0.0158,-0.0172 0.34718,-0.44156 0.73649,-0.9431 2.01595,-2.59728 4.13784,-4.5845 6.69,-6.26547 1.11469,-0.73419 3.74977,-2.05338 5.11121,-2.55882 1.44661,-0.53705 3.65215,-1.15836 4.31119,-1.21448 1.1523,-0.0981 2.3408,0.43184 3.04304,1.35691 0.62062,0.81755 1.52445,3.06411 2.07163,5.14922 1.2116,4.61704 1.33204,10.03556 0.33955,15.27595 l -0.23318,1.23122 0.93053,0.9466 c 7.59713,7.72826 11.62379,17.44835 11.32887,27.34711 -0.15998,5.36941 -1.36162,10.1184 -3.78883,14.97381 -1.99316,3.98715 -4.06522,6.8313 -7.4207,10.18582 -2.38595,2.38527 -4.40633,4.0249 -7.11537,5.77447 -0.58667,0.3789 -1.08089,0.7014 -1.09825,0.71668 -0.0174,0.0153 0.0912,0.66026 0.2412,1.43329 1.33333,6.87072 2.02405,13.22232 2.36333,21.73238 l 0.0449,1.1265 -1.04227,0.50379 c -9.81935,4.74631 -20.79801,7.02211 -32.0651,6.64685 z m 9.28907,-16.89565 c 1.22921,-0.42239 2.24118,-0.98545 3.24451,-1.80526 1.05298,-0.86037 1.98661,-1.93152 2.40751,-2.76213 l 0.21549,-0.42524 0.88597,0.58049 c 1.11159,0.72833 2.65349,1.46511 3.9215,1.87387 1.50863,0.48632 1.83935,0.33684 2.12793,-0.96179 0.48456,-2.18048 0.37286,-4.94166 -0.3046,-7.52863 -0.33612,-1.28352 -0.64444,-1.47278 -1.76895,-1.08589 -1.86024,0.64002 -3.45892,1.69427 -4.70695,3.10405 l -0.421,0.47556 -0.60066,-0.44457 c -1.85482,-1.37282 -4.00319,-2.40292 -6.99384,-3.35341 -1.98475,-0.63079 -2.13416,-0.54819 -2.41626,1.3357 -0.21068,1.40686 -0.21105,3.99015 0,5.24455 0.3014,1.79785 0.8354,3.47522 1.58391,4.97526 0.5496,1.10144 0.60362,1.1432 1.40392,1.0853 0.38874,-0.0281 0.9817,-0.15647 1.42225,-0.30786 z m 4.31121,-36.37719 c 0.91155,-0.2879 1.58823,-0.65147 2.49531,-1.34066 0.9903,-0.75247 1.3225,-0.84224 2.22742,-0.6019 0.86058,0.22857 1.92574,0.3002 2.54519,0.17116 1.57616,-0.32833 3.13944,-1.71811 4.02128,-3.57499 0.50013,-1.05315 0.62488,-2.1269 0.26324,-2.26568 -0.21078,-0.0809 -0.53257,0.1891 -1.04867,0.8798 -0.89933,1.20358 -1.41767,1.553 -2.80048,1.88782 -1.17306,0.28403 -2.0667,0.0961 -3.52171,-0.74056 -0.43797,-0.25184 -0.86609,-0.45789 -0.9514,-0.45789 -0.32369,0 -0.61288,0.22282 -1.22115,0.94089 -1.13041,1.33447 -2.15322,1.96089 -3.60907,2.21039 -1.75614,0.30096 -2.74737,0.14409 -4.24902,-0.67247 -1.3525,-0.73544 -1.96994,-0.8559 -2.19845,-0.42892 -0.21578,0.40322 0.25279,1.22185 1.22361,2.13767 1.04819,0.9888 2.33024,1.67874 3.71271,1.998 0.77476,0.17892 2.31688,0.10821 3.11119,-0.14266 z m 3.11116,-9.05781 c 0.74749,-0.32736 1.64221,-1.26672 2.828,-2.96909 0.88274,-1.26727 1.029,-1.67129 0.86,-2.37574 -0.0742,-0.30947 -0.21533,-0.56687 -0.44037,-0.80345 -0.41198,-0.43307 -0.0995,-0.42831 -5.45061,-0.083 -3.05275,0.19702 -4.14213,0.29703 -4.35955,0.4002 -0.79265,0.37613 -0.8852,1.70213 -0.1766,2.52997 0.17254,0.20157 0.7994,0.73841 1.39304,1.19297 2.86685,2.1952 4.06679,2.66837 5.34609,2.1081 z m -29.84062,-11.33203 c 0.13203,-0.0685 0.45319,-0.38743 0.71369,-0.70885 2.86515,-3.5352 7.38812,-4.9368 11.79278,-3.65441 1.82456,0.53121 3.33193,1.43353 4.99562,2.99043 0.73361,0.68652 1.06248,0.80485 1.56892,0.56453 0.68298,-0.32409 0.7989,-0.8655 0.42458,-1.98276 -0.59037,-1.76215 -1.53511,-3.3153 -2.82669,-4.64709 -1.63396,-1.68482 -3.42618,-2.69134 -5.63287,-3.16342 -0.89939,-0.19241 -3.04008,-0.21559 -3.86253,-0.0418 -3.29825,0.69689 -5.97227,2.77832 -7.4959,5.83474 -0.49751,0.99802 -0.92693,2.29159 -1.08404,3.26551 -0.12769,0.79151 0.002,1.20587 0.46334,1.48752 0.34627,0.21111 0.61286,0.22683 0.9431,0.0556 z m 31.99423,-3.47726 c 2.2558,-2.25579 4.8764,-3.29185 7.89103,-3.11972 2.18481,0.12474 4.28776,0.9468 5.98143,2.3382 1.09467,0.8993 1.26146,1.00538 1.5806,1.00538 0.38753,0 0.81491,-0.36357 0.8885,-0.75585 0.0699,-0.37261 -0.18115,-1.16117 -0.68059,-2.13777 -2.10153,-4.10933 -6.60545,-6.19184 -10.96366,-5.06936 -3.27358,0.84313 -5.86319,3.47066 -6.70622,6.80444 -0.22459,0.88808 -0.23226,1.08399 -0.0558,1.42521 0.17132,0.33128 0.36217,0.4384 0.78709,0.44175 0.31789,0.002 0.41021,-0.0649 1.27763,-0.93228 z"
       id="path999" /><path
       style="display:inline;fill:#4c4f69;stroke-width:0.0888906;fill-opacity:1"
       d="m 997.41609,307.18615 c -1.3473,-0.0449 -4.2763,-0.28501 -5.8223,-0.47735 -7.9684,-0.99136 -15.38376,-3.27063 -22.60046,-6.9467 -1.65492,-0.84299 -1.93337,-1.01367 -1.93337,-1.18506 0,-0.23722 0.34489,-2.63279 0.65829,-4.57239 0.77062,-4.76936 1.88262,-9.57727 3.20369,-13.85153 0.32039,-1.03665 0.58251,-1.91422 0.58245,-1.95014 -4e-5,-0.0359 -0.33005,-0.24249 -0.73334,-0.45905 -4.84895,-2.60374 -9.05553,-6.2555 -12.03871,-10.45091 -1.86485,-2.62264 -3.48205,-5.9312 -4.43635,-9.07618 -1.90898,-6.29122 -2.12675,-13.89395 -0.60953,-21.27997 1.13175,-5.50954 3.25521,-10.68453 6.15643,-15.00359 l 0.43509,-0.64774 -0.25461,-1.04118 c -0.98224,-4.01673 -1.70523,-8.19689 -2.1326,-12.33029 -0.23277,-2.2512 -0.27918,-6.47177 -0.0865,-7.86682 0.31336,-2.2688 0.58797,-3.08083 1.28662,-3.80434 0.81904,-0.84819 1.67538,-1.13581 3.12023,-1.04799 3.7403,0.22734 7.62798,1.25162 10.80891,2.84783 3.09306,1.5521 5.30693,3.23085 8.02822,6.08763 l 0.8769,0.92059 1.56754,-0.50318 c 5.1997,-1.66902 10.1796,-2.40701 16.1901,-2.3993 4.54641,0.006 8.00671,0.38537 11.76161,1.29002 0.8221,0.19807 1.5077,0.34608 1.5235,0.32891 0.016,-0.0172 0.3471,-0.44156 0.7364,-0.9431 2.016,-2.59728 4.1379,-4.5845 6.69,-6.26547 1.1147,-0.73419 3.7498,-2.05338 5.1113,-2.55882 1.4466,-0.53705 3.6521,-1.15836 4.3111,-1.21448 1.1523,-0.0981 2.3408,0.43184 3.0431,1.35691 0.6206,0.81755 1.5244,3.06411 2.0716,5.14922 1.2116,4.61704 1.3321,10.03556 0.3396,15.27595 l -0.2332,1.23122 0.9305,0.9466 c 7.5971,7.72826 11.6238,17.44835 11.3289,27.34711 -0.16,5.36941 -1.3616,10.1184 -3.7888,14.97381 -1.9932,3.98715 -4.0653,6.8313 -7.4207,10.18582 -2.386,2.38527 -4.4064,4.0249 -7.1154,5.77447 -0.5867,0.3789 -1.0809,0.7014 -1.0983,0.71668 -0.017,0.0153 0.091,0.66026 0.2412,1.43329 1.3334,6.87072 2.0241,13.22232 2.3634,21.73238 l 0.045,1.1265 -1.0423,0.50379 c -9.8194,4.74631 -20.798,7.02211 -32.06511,6.64685 z m 9.28911,-16.89565 c 1.2292,-0.42239 2.2412,-0.98545 3.2445,-1.80526 1.053,-0.86037 1.9866,-1.93152 2.4075,-2.76213 l 0.2155,-0.42524 0.886,0.58049 c 1.1116,0.72833 2.6535,1.46511 3.9215,1.87387 1.5086,0.48632 1.8393,0.33684 2.1279,-0.96179 0.4846,-2.18048 0.3729,-4.94166 -0.3046,-7.52863 -0.3361,-1.28352 -0.6444,-1.47278 -1.769,-1.08589 -1.8602,0.64002 -3.4589,1.69427 -4.7069,3.10405 l -0.421,0.47556 -0.6007,-0.44457 c -1.8548,-1.37282 -4.0032,-2.40292 -6.9938,-3.35341 -1.9848,-0.63079 -2.1342,-0.54819 -2.4163,1.3357 -0.2106,1.40686 -0.211,3.99015 0,5.24455 0.3014,1.79785 0.8354,3.47522 1.5839,4.97526 0.5496,1.10144 0.6037,1.1432 1.404,1.0853 0.3887,-0.0281 0.9817,-0.15647 1.4222,-0.30786 z m 4.3112,-36.37719 c 0.9115,-0.2879 1.5882,-0.65147 2.4953,-1.34066 0.9903,-0.75247 1.3225,-0.84224 2.2274,-0.6019 0.8606,0.22857 1.9258,0.3002 2.5452,0.17116 1.5762,-0.32833 3.1395,-1.71811 4.0213,-3.57499 0.5001,-1.05315 0.6249,-2.1269 0.2632,-2.26568 -0.2107,-0.0809 -0.5325,0.1891 -1.0486,0.8798 -0.8994,1.20358 -1.4177,1.553 -2.8005,1.88782 -1.1731,0.28403 -2.0667,0.0961 -3.5217,-0.74056 -0.438,-0.25184 -0.8661,-0.45789 -0.9514,-0.45789 -0.3237,0 -0.6129,0.22282 -1.2212,0.94089 -1.1304,1.33447 -2.1532,1.96089 -3.609,2.21039 -1.7562,0.30096 -2.7474,0.14409 -4.2491,-0.67247 -1.3525,-0.73544 -1.9699,-0.8559 -2.1984,-0.42892 -0.2158,0.40322 0.2528,1.22185 1.2236,2.13767 1.0482,0.9888 2.3302,1.67874 3.7127,1.998 0.7748,0.17892 2.3169,0.10821 3.1112,-0.14266 z m 3.1112,-9.05781 c 0.7474,-0.32736 1.6422,-1.26672 2.828,-2.96909 0.8827,-1.26727 1.029,-1.67129 0.86,-2.37574 -0.074,-0.30947 -0.2154,-0.56687 -0.4404,-0.80345 -0.412,-0.43307 -0.1,-0.42831 -5.4506,-0.083 -3.0528,0.19702 -4.1422,0.29703 -4.3596,0.4002 -0.7926,0.37613 -0.8852,1.70213 -0.1766,2.52997 0.1726,0.20157 0.7994,0.73841 1.3931,1.19297 2.8668,2.1952 4.0668,2.66837 5.3461,2.1081 z m -29.84071,-11.33203 c 0.1321,-0.0685 0.4532,-0.38743 0.7137,-0.70885 2.8652,-3.5352 7.3881,-4.9368 11.7928,-3.65441 1.8246,0.53121 3.33191,1.43353 4.99561,2.99043 0.7336,0.68652 1.0625,0.80485 1.5689,0.56453 0.683,-0.32409 0.7989,-0.8655 0.4246,-1.98276 -0.5903,-1.76215 -1.5351,-3.3153 -2.8267,-4.64709 -1.63391,-1.68482 -3.42611,-2.69134 -5.63281,-3.16342 -0.8994,-0.19241 -3.0401,-0.21559 -3.8626,-0.0418 -3.2982,0.69689 -5.9722,2.77832 -7.4959,5.83474 -0.4975,0.99802 -0.9269,2.29159 -1.08401,3.26551 -0.12769,0.79151 0.002,1.20587 0.46331,1.48752 0.3463,0.21111 0.6129,0.22683 0.9431,0.0556 z m 31.99431,-3.47726 c 2.2558,-2.25579 4.8764,-3.29185 7.891,-3.11972 2.1848,0.12474 4.2878,0.9468 5.9814,2.3382 1.0947,0.8993 1.2615,1.00538 1.5806,1.00538 0.3876,0 0.8149,-0.36357 0.8885,-0.75585 0.07,-0.37261 -0.1811,-1.16117 -0.6806,-2.13777 -2.1015,-4.10933 -6.6054,-6.19184 -10.9636,-5.06936 -3.2736,0.84313 -5.8632,3.47066 -6.7062,6.80444 -0.2246,0.88808 -0.2323,1.08399 -0.056,1.42521 0.1713,0.33128 0.3621,0.4384 0.787,0.44175 0.3179,0.002 0.4103,-0.0649 1.2777,-0.93228 z"
       id="path1001" /><path
       style="display:inline;fill:#4c4f69;stroke-width:0.0888906;fill-opacity:1"
       d="m 1247.4159,307.18615 c -1.3473,-0.0449 -4.2763,-0.28501 -5.8223,-0.47735 -7.9684,-0.99136 -15.3838,-3.27063 -22.6005,-6.9467 -1.6549,-0.84299 -1.9334,-1.01367 -1.9334,-1.18506 0,-0.23722 0.3449,-2.63279 0.6583,-4.57239 0.7707,-4.76936 1.8827,-9.57727 3.2037,-13.85153 0.3204,-1.03665 0.5825,-1.91422 0.5825,-1.95014 -10e-5,-0.0359 -0.3301,-0.24249 -0.7334,-0.45905 -4.8489,-2.60374 -9.0555,-6.2555 -12.0387,-10.45091 -1.8648,-2.62264 -3.482,-5.9312 -4.4363,-9.07618 -1.909,-6.29122 -2.1268,-13.89395 -0.6096,-21.27997 1.1318,-5.50954 3.2553,-10.68453 6.1565,-15.00359 l 0.4351,-0.64774 -0.2546,-1.04118 c -0.9823,-4.01673 -1.7053,-8.19689 -2.1326,-12.33029 -0.2328,-2.2512 -0.2792,-6.47177 -0.086,-7.86682 0.3133,-2.2688 0.5879,-3.08083 1.2866,-3.80434 0.819,-0.84819 1.6754,-1.13581 3.1202,-1.04799 3.7403,0.22734 7.628,1.25162 10.8089,2.84783 3.0931,1.5521 5.3069,3.23085 8.0282,6.08763 l 0.8769,0.92059 1.5676,-0.50318 c 5.1997,-1.66902 10.1796,-2.40701 16.1901,-2.3993 4.5464,0.006 8.0067,0.38537 11.7616,1.29002 0.8221,0.19807 1.5077,0.34608 1.5235,0.32891 0.016,-0.0172 0.3471,-0.44156 0.7364,-0.9431 2.016,-2.59728 4.1379,-4.5845 6.69,-6.26547 1.1147,-0.73419 3.7498,-2.05338 5.1113,-2.55882 1.4466,-0.53705 3.6521,-1.15836 4.3111,-1.21448 1.1523,-0.0981 2.3408,0.43184 3.0431,1.35691 0.6206,0.81755 1.5244,3.06411 2.0716,5.14922 1.2116,4.61704 1.3321,10.03556 0.3396,15.27595 l -0.2332,1.23122 0.9305,0.9466 c 7.5971,7.72826 11.6238,17.44835 11.3289,27.34711 -0.16,5.36941 -1.3616,10.1184 -3.7888,14.97381 -1.9932,3.98715 -4.0653,6.8313 -7.4207,10.18582 -2.386,2.38527 -4.4064,4.0249 -7.1154,5.77447 -0.5867,0.3789 -1.0809,0.7014 -1.0983,0.71668 -0.017,0.0153 0.091,0.66026 0.2412,1.43329 1.3334,6.87072 2.0241,13.22232 2.3634,21.73238 l 0.045,1.1265 -1.0423,0.50379 c -9.8194,4.74631 -20.798,7.02211 -32.0651,6.64685 z m 9.2891,-16.89565 c 1.2292,-0.42239 2.2412,-0.98545 3.2445,-1.80526 1.053,-0.86037 1.9866,-1.93152 2.4075,-2.76213 l 0.2155,-0.42524 0.886,0.58049 c 1.1116,0.72833 2.6535,1.46511 3.9215,1.87387 1.5086,0.48632 1.8393,0.33684 2.1279,-0.96179 0.4846,-2.18048 0.3729,-4.94166 -0.3046,-7.52863 -0.3361,-1.28352 -0.6444,-1.47278 -1.769,-1.08589 -1.8602,0.64002 -3.4589,1.69427 -4.7069,3.10405 l -0.421,0.47556 -0.6007,-0.44457 c -1.8548,-1.37282 -4.0032,-2.40292 -6.9938,-3.35341 -1.9848,-0.63079 -2.1342,-0.54819 -2.4163,1.3357 -0.2106,1.40686 -0.211,3.99015 0,5.24455 0.3014,1.79785 0.8354,3.47522 1.5839,4.97526 0.5496,1.10144 0.6037,1.1432 1.404,1.0853 0.3887,-0.0281 0.9817,-0.15647 1.4222,-0.30786 z m 4.3112,-36.37719 c 0.9115,-0.2879 1.5882,-0.65147 2.4953,-1.34066 0.9903,-0.75247 1.3225,-0.84224 2.2274,-0.6019 0.8606,0.22857 1.9258,0.3002 2.5452,0.17116 1.5762,-0.32833 3.1395,-1.71811 4.0213,-3.57499 0.5001,-1.05315 0.6249,-2.1269 0.2632,-2.26568 -0.2107,-0.0809 -0.5325,0.1891 -1.0486,0.8798 -0.8994,1.20358 -1.4177,1.553 -2.8005,1.88782 -1.1731,0.28403 -2.0667,0.0961 -3.5217,-0.74056 -0.438,-0.25184 -0.8661,-0.45789 -0.9514,-0.45789 -0.3237,0 -0.6129,0.22282 -1.2212,0.94089 -1.1304,1.33447 -2.1532,1.96089 -3.609,2.21039 -1.7562,0.30096 -2.7474,0.14409 -4.2491,-0.67247 -1.3525,-0.73544 -1.9699,-0.8559 -2.1984,-0.42892 -0.2158,0.40322 0.2528,1.22185 1.2236,2.13767 1.0482,0.9888 2.3302,1.67874 3.7127,1.998 0.7748,0.17892 2.3169,0.10821 3.1112,-0.14266 z m 3.1112,-9.05781 c 0.7474,-0.32736 1.6422,-1.26672 2.828,-2.96909 0.8827,-1.26727 1.029,-1.67129 0.86,-2.37574 -0.074,-0.30947 -0.2154,-0.56687 -0.4404,-0.80345 -0.412,-0.43307 -0.1,-0.42831 -5.4506,-0.083 -3.0528,0.19702 -4.1422,0.29703 -4.3596,0.4002 -0.7926,0.37613 -0.8852,1.70213 -0.1766,2.52997 0.1726,0.20157 0.7994,0.73841 1.3931,1.19297 2.8668,2.1952 4.0668,2.66837 5.3461,2.1081 z m -29.8407,-11.33203 c 0.1321,-0.0685 0.4532,-0.38743 0.7137,-0.70885 2.8652,-3.5352 7.3881,-4.9368 11.7928,-3.65441 1.8246,0.53121 3.3319,1.43353 4.9956,2.99043 0.7336,0.68652 1.0625,0.80485 1.5689,0.56453 0.683,-0.32409 0.7989,-0.8655 0.4246,-1.98276 -0.5903,-1.76215 -1.5351,-3.3153 -2.8267,-4.64709 -1.6339,-1.68482 -3.4261,-2.69134 -5.6328,-3.16342 -0.8994,-0.19241 -3.0401,-0.21559 -3.8626,-0.0418 -3.2982,0.69689 -5.9722,2.77832 -7.4959,5.83474 -0.4975,0.99802 -0.9269,2.29159 -1.084,3.26551 -0.1277,0.79151 0,1.20587 0.4633,1.48752 0.3463,0.21111 0.6129,0.22683 0.9431,0.0556 z m 31.9943,-3.47726 c 2.2558,-2.25579 4.8764,-3.29185 7.891,-3.11972 2.1848,0.12474 4.2878,0.9468 5.9814,2.3382 1.0947,0.8993 1.2615,1.00538 1.5806,1.00538 0.3876,0 0.8149,-0.36357 0.8885,-0.75585 0.07,-0.37261 -0.1811,-1.16117 -0.6806,-2.13777 -2.1015,-4.10933 -6.6054,-6.19184 -10.9636,-5.06936 -3.2736,0.84313 -5.8632,3.47066 -6.7062,6.80444 -0.2246,0.88808 -0.2323,1.08399 -0.056,1.42521 0.1713,0.33128 0.3621,0.4384 0.787,0.44175 0.3179,0.002 0.4103,-0.0649 1.2777,-0.93228 z"
       id="path1003" /><path
       style="display:inline;fill:#4c4f69;stroke-width:0.0888906;fill-opacity:1"
       d="m 1497.4159,307.18615 c -1.3473,-0.0449 -4.2763,-0.28501 -5.8223,-0.47735 -7.9684,-0.99136 -15.3838,-3.27063 -22.6005,-6.9467 -1.6549,-0.84299 -1.9334,-1.01367 -1.9334,-1.18506 0,-0.23722 0.3449,-2.63279 0.6583,-4.57239 0.7707,-4.76936 1.8827,-9.57727 3.2037,-13.85153 0.3204,-1.03665 0.5825,-1.91422 0.5825,-1.95014 -10e-5,-0.0359 -0.3301,-0.24249 -0.7334,-0.45905 -4.8489,-2.60374 -9.0555,-6.2555 -12.0387,-10.45091 -1.8648,-2.62264 -3.482,-5.9312 -4.4363,-9.07618 -1.909,-6.29122 -2.1268,-13.89395 -0.6096,-21.27997 1.1318,-5.50954 3.2553,-10.68453 6.1565,-15.00359 l 0.4351,-0.64774 -0.2546,-1.04118 c -0.9823,-4.01673 -1.7053,-8.19689 -2.1326,-12.33029 -0.2328,-2.2512 -0.2792,-6.47177 -0.086,-7.86682 0.3133,-2.2688 0.5879,-3.08083 1.2866,-3.80434 0.819,-0.84819 1.6754,-1.13581 3.1202,-1.04799 3.7403,0.22734 7.628,1.25162 10.8089,2.84783 3.0931,1.5521 5.3069,3.23085 8.0282,6.08763 l 0.8769,0.92059 1.5676,-0.50318 c 5.1997,-1.66902 10.1796,-2.40701 16.1901,-2.3993 4.5464,0.006 8.0067,0.38537 11.7616,1.29002 0.8221,0.19807 1.5077,0.34608 1.5235,0.32891 0.016,-0.0172 0.3471,-0.44156 0.7364,-0.9431 2.016,-2.59728 4.1379,-4.5845 6.69,-6.26547 1.1147,-0.73419 3.7498,-2.05338 5.1113,-2.55882 1.4466,-0.53705 3.6521,-1.15836 4.3111,-1.21448 1.1523,-0.0981 2.3408,0.43184 3.0431,1.35691 0.6206,0.81755 1.5244,3.06411 2.0716,5.14922 1.2116,4.61704 1.3321,10.03556 0.3396,15.27595 l -0.2332,1.23122 0.9305,0.9466 c 7.5971,7.72826 11.6238,17.44835 11.3289,27.34711 -0.16,5.36941 -1.3616,10.1184 -3.7888,14.97381 -1.9932,3.98715 -4.0653,6.8313 -7.4207,10.18582 -2.386,2.38527 -4.4064,4.0249 -7.1154,5.77447 -0.5867,0.3789 -1.0809,0.7014 -1.0983,0.71668 -0.017,0.0153 0.091,0.66026 0.2412,1.43329 1.3334,6.87072 2.0241,13.22232 2.3634,21.73238 l 0.045,1.1265 -1.0423,0.50379 c -9.8194,4.74631 -20.798,7.02211 -32.0651,6.64685 z m 9.2891,-16.89565 c 1.2292,-0.42239 2.2412,-0.98545 3.2445,-1.80526 1.053,-0.86037 1.9866,-1.93152 2.4075,-2.76213 l 0.2155,-0.42524 0.886,0.58049 c 1.1116,0.72833 2.6535,1.46511 3.9215,1.87387 1.5086,0.48632 1.8393,0.33684 2.1279,-0.96179 0.4846,-2.18048 0.3729,-4.94166 -0.3046,-7.52863 -0.3361,-1.28352 -0.6444,-1.47278 -1.769,-1.08589 -1.8602,0.64002 -3.4589,1.69427 -4.7069,3.10405 l -0.421,0.47556 -0.6007,-0.44457 c -1.8548,-1.37282 -4.0032,-2.40292 -6.9938,-3.35341 -1.9848,-0.63079 -2.1342,-0.54819 -2.4163,1.3357 -0.2106,1.40686 -0.211,3.99015 0,5.24455 0.3014,1.79785 0.8354,3.47522 1.5839,4.97526 0.5496,1.10144 0.6037,1.1432 1.404,1.0853 0.3887,-0.0281 0.9817,-0.15647 1.4222,-0.30786 z m 4.3112,-36.37719 c 0.9115,-0.2879 1.5882,-0.65147 2.4953,-1.34066 0.9903,-0.75247 1.3225,-0.84224 2.2274,-0.6019 0.8606,0.22857 1.9258,0.3002 2.5452,0.17116 1.5762,-0.32833 3.1395,-1.71811 4.0213,-3.57499 0.5001,-1.05315 0.6249,-2.1269 0.2632,-2.26568 -0.2107,-0.0809 -0.5325,0.1891 -1.0486,0.8798 -0.8994,1.20358 -1.4177,1.553 -2.8005,1.88782 -1.1731,0.28403 -2.0667,0.0961 -3.5217,-0.74056 -0.438,-0.25184 -0.8661,-0.45789 -0.9514,-0.45789 -0.3237,0 -0.6129,0.22282 -1.2212,0.94089 -1.1304,1.33447 -2.1532,1.96089 -3.609,2.21039 -1.7562,0.30096 -2.7474,0.14409 -4.2491,-0.67247 -1.3525,-0.73544 -1.9699,-0.8559 -2.1984,-0.42892 -0.2158,0.40322 0.2528,1.22185 1.2236,2.13767 1.0482,0.9888 2.3302,1.67874 3.7127,1.998 0.7748,0.17892 2.3169,0.10821 3.1112,-0.14266 z m 3.1112,-9.05781 c 0.7474,-0.32736 1.6422,-1.26672 2.828,-2.96909 0.8827,-1.26727 1.029,-1.67129 0.86,-2.37574 -0.074,-0.30947 -0.2154,-0.56687 -0.4404,-0.80345 -0.412,-0.43307 -0.1,-0.42831 -5.4506,-0.083 -3.0528,0.19702 -4.1422,0.29703 -4.3596,0.4002 -0.7926,0.37613 -0.8852,1.70213 -0.1766,2.52997 0.1726,0.20157 0.7994,0.73841 1.3931,1.19297 2.8668,2.1952 4.0668,2.66837 5.3461,2.1081 z m -29.8407,-11.33203 c 0.1321,-0.0685 0.4532,-0.38743 0.7137,-0.70885 2.8652,-3.5352 7.3881,-4.9368 11.7928,-3.65441 1.8246,0.53121 3.3319,1.43353 4.9956,2.99043 0.7336,0.68652 1.0625,0.80485 1.5689,0.56453 0.683,-0.32409 0.7989,-0.8655 0.4246,-1.98276 -0.5903,-1.76215 -1.5351,-3.3153 -2.8267,-4.64709 -1.6339,-1.68482 -3.4261,-2.69134 -5.6328,-3.16342 -0.8994,-0.19241 -3.0401,-0.21559 -3.8626,-0.0418 -3.2982,0.69689 -5.9722,2.77832 -7.4959,5.83474 -0.4975,0.99802 -0.9269,2.29159 -1.084,3.26551 -0.1277,0.79151 0,1.20587 0.4633,1.48752 0.3463,0.21111 0.6129,0.22683 0.9431,0.0556 z m 31.9943,-3.47726 c 2.2558,-2.25579 4.8764,-3.29185 7.891,-3.11972 2.1848,0.12474 4.2878,0.9468 5.9814,2.3382 1.0947,0.8993 1.2615,1.00538 1.5806,1.00538 0.3876,0 0.8149,-0.36357 0.8885,-0.75585 0.07,-0.37261 -0.1811,-1.16117 -0.6806,-2.13777 -2.1015,-4.10933 -6.6054,-6.19184 -10.9636,-5.06936 -3.2736,0.84313 -5.8632,3.47066 -6.7062,6.80444 -0.2246,0.88808 -0.2323,1.08399 -0.056,1.42521 0.1713,0.33128 0.3621,0.4384 0.787,0.44175 0.3179,0.002 0.4103,-0.0649 1.2777,-0.93228 z"
       id="path1005" /><path
       style="display:inline;fill:#4c4f69;stroke-width:0.0888906;fill-opacity:1"
       d="m 1747.4159,307.18615 c -1.3473,-0.0449 -4.2763,-0.28501 -5.8223,-0.47735 -7.9684,-0.99136 -15.3838,-3.27063 -22.6005,-6.9467 -1.6549,-0.84299 -1.9334,-1.01367 -1.9334,-1.18506 0,-0.23722 0.3449,-2.63279 0.6583,-4.57239 0.7707,-4.76936 1.8827,-9.57727 3.2037,-13.85153 0.3204,-1.03665 0.5825,-1.91422 0.5825,-1.95014 -10e-5,-0.0359 -0.3301,-0.24249 -0.7334,-0.45905 -4.8489,-2.60374 -9.0555,-6.2555 -12.0387,-10.45091 -1.8648,-2.62264 -3.482,-5.9312 -4.4363,-9.07618 -1.909,-6.29122 -2.1268,-13.89395 -0.6096,-21.27997 1.1318,-5.50954 3.2553,-10.68453 6.1565,-15.00359 l 0.4351,-0.64774 -0.2546,-1.04118 c -0.9823,-4.01673 -1.7053,-8.19689 -2.1326,-12.33029 -0.2328,-2.2512 -0.2792,-6.47177 -0.086,-7.86682 0.3133,-2.2688 0.5879,-3.08083 1.2866,-3.80434 0.819,-0.84819 1.6754,-1.13581 3.1202,-1.04799 3.7403,0.22734 7.628,1.25162 10.8089,2.84783 3.0931,1.5521 5.3069,3.23085 8.0282,6.08763 l 0.8769,0.92059 1.5676,-0.50318 c 5.1997,-1.66902 10.1796,-2.40701 16.1901,-2.3993 4.5464,0.006 8.0067,0.38537 11.7616,1.29002 0.8221,0.19807 1.5077,0.34608 1.5235,0.32891 0.016,-0.0172 0.3471,-0.44156 0.7364,-0.9431 2.016,-2.59728 4.1379,-4.5845 6.69,-6.26547 1.1147,-0.73419 3.7498,-2.05338 5.1113,-2.55882 1.4466,-0.53705 3.6521,-1.15836 4.3111,-1.21448 1.1523,-0.0981 2.3408,0.43184 3.0431,1.35691 0.6206,0.81755 1.5244,3.06411 2.0716,5.14922 1.2116,4.61704 1.3321,10.03556 0.3396,15.27595 l -0.2332,1.23122 0.9305,0.9466 c 7.5971,7.72826 11.6238,17.44835 11.3289,27.34711 -0.16,5.36941 -1.3616,10.1184 -3.7888,14.97381 -1.9932,3.98715 -4.0653,6.8313 -7.4207,10.18582 -2.386,2.38527 -4.4064,4.0249 -7.1154,5.77447 -0.5867,0.3789 -1.0809,0.7014 -1.0983,0.71668 -0.017,0.0153 0.091,0.66026 0.2412,1.43329 1.3334,6.87072 2.0241,13.22232 2.3634,21.73238 l 0.045,1.1265 -1.0423,0.50379 c -9.8194,4.74631 -20.798,7.02211 -32.0651,6.64685 z m 9.2891,-16.89565 c 1.2292,-0.42239 2.2412,-0.98545 3.2445,-1.80526 1.053,-0.86037 1.9866,-1.93152 2.4075,-2.76213 l 0.2155,-0.42524 0.886,0.58049 c 1.1116,0.72833 2.6535,1.46511 3.9215,1.87387 1.5086,0.48632 1.8393,0.33684 2.1279,-0.96179 0.4846,-2.18048 0.3729,-4.94166 -0.3046,-7.52863 -0.3361,-1.28352 -0.6444,-1.47278 -1.769,-1.08589 -1.8602,0.64002 -3.4589,1.69427 -4.7069,3.10405 l -0.421,0.47556 -0.6007,-0.44457 c -1.8548,-1.37282 -4.0032,-2.40292 -6.9938,-3.35341 -1.9848,-0.63079 -2.1342,-0.54819 -2.4163,1.3357 -0.2106,1.40686 -0.211,3.99015 0,5.24455 0.3014,1.79785 0.8354,3.47522 1.5839,4.97526 0.5496,1.10144 0.6037,1.1432 1.404,1.0853 0.3887,-0.0281 0.9817,-0.15647 1.4222,-0.30786 z m 4.3112,-36.37719 c 0.9115,-0.2879 1.5882,-0.65147 2.4953,-1.34066 0.9903,-0.75247 1.3225,-0.84224 2.2274,-0.6019 0.8606,0.22857 1.9258,0.3002 2.5452,0.17116 1.5762,-0.32833 3.1395,-1.71811 4.0213,-3.57499 0.5001,-1.05315 0.6249,-2.1269 0.2632,-2.26568 -0.2107,-0.0809 -0.5325,0.1891 -1.0486,0.8798 -0.8994,1.20358 -1.4177,1.553 -2.8005,1.88782 -1.1731,0.28403 -2.0667,0.0961 -3.5217,-0.74056 -0.438,-0.25184 -0.8661,-0.45789 -0.9514,-0.45789 -0.3237,0 -0.6129,0.22282 -1.2212,0.94089 -1.1304,1.33447 -2.1532,1.96089 -3.609,2.21039 -1.7562,0.30096 -2.7474,0.14409 -4.2491,-0.67247 -1.3525,-0.73544 -1.9699,-0.8559 -2.1984,-0.42892 -0.2158,0.40322 0.2528,1.22185 1.2236,2.13767 1.0482,0.9888 2.3302,1.67874 3.7127,1.998 0.7748,0.17892 2.3169,0.10821 3.1112,-0.14266 z m 3.1112,-9.05781 c 0.7474,-0.32736 1.6422,-1.26672 2.828,-2.96909 0.8827,-1.26727 1.029,-1.67129 0.86,-2.37574 -0.074,-0.30947 -0.2154,-0.56687 -0.4404,-0.80345 -0.412,-0.43307 -0.1,-0.42831 -5.4506,-0.083 -3.0528,0.19702 -4.1422,0.29703 -4.3596,0.4002 -0.7926,0.37613 -0.8852,1.70213 -0.1766,2.52997 0.1726,0.20157 0.7994,0.73841 1.3931,1.19297 2.8668,2.1952 4.0668,2.66837 5.3461,2.1081 z m -29.8407,-11.33203 c 0.1321,-0.0685 0.4532,-0.38743 0.7137,-0.70885 2.8652,-3.5352 7.3881,-4.9368 11.7928,-3.65441 1.8246,0.53121 3.3319,1.43353 4.9956,2.99043 0.7336,0.68652 1.0625,0.80485 1.5689,0.56453 0.683,-0.32409 0.7989,-0.8655 0.4246,-1.98276 -0.5903,-1.76215 -1.5351,-3.3153 -2.8267,-4.64709 -1.6339,-1.68482 -3.4261,-2.69134 -5.6328,-3.16342 -0.8994,-0.19241 -3.0401,-0.21559 -3.8626,-0.0418 -3.2982,0.69689 -5.9722,2.77832 -7.4959,5.83474 -0.4975,0.99802 -0.9269,2.29159 -1.084,3.26551 -0.1277,0.79151 0,1.20587 0.4633,1.48752 0.3463,0.21111 0.6129,0.22683 0.9431,0.0556 z m 31.9943,-3.47726 c 2.2558,-2.25579 4.8764,-3.29185 7.891,-3.11972 2.1848,0.12474 4.2878,0.9468 5.9814,2.3382 1.0947,0.8993 1.2615,1.00538 1.5806,1.00538 0.3876,0 0.8149,-0.36357 0.8885,-0.75585 0.07,-0.37261 -0.1811,-1.16117 -0.6806,-2.13777 -2.1015,-4.10933 -6.6054,-6.19184 -10.9636,-5.06936 -3.2736,0.84313 -5.8632,3.47066 -6.7062,6.80444 -0.2246,0.88808 -0.2323,1.08399 -0.056,1.42521 0.1713,0.33128 0.3621,0.4384 0.787,0.44175 0.3179,0.002 0.4103,-0.0649 1.2777,-0.93228 z"
       id="path1007" /><path
       style="display:inline;fill:#4c4f69;stroke-width:0.0888906;fill-opacity:1"
       d="m 247.41611,633.51576 c -1.34736,-0.0449 -4.27634,-0.28501 -5.82234,-0.47735 -7.96834,-0.99136 -15.38373,-3.27063 -22.60043,-6.9467 -1.65492,-0.84299 -1.93337,-1.01367 -1.93337,-1.18506 0,-0.23722 0.34489,-2.63279 0.65829,-4.57239 0.77062,-4.76936 1.88262,-9.57727 3.20369,-13.85153 0.32039,-1.03665 0.58251,-1.91422 0.58245,-1.95014 -4e-5,-0.0359 -0.33005,-0.24249 -0.73334,-0.45905 -4.84895,-2.60374 -9.05553,-6.2555 -12.03871,-10.45091 -1.86485,-2.62264 -3.48205,-5.9312 -4.43635,-9.07618 -1.90898,-6.29122 -2.12675,-13.89395 -0.60953,-21.27997 1.13175,-5.50954 3.25521,-10.68453 6.15643,-15.00359 l 0.43509,-0.64774 -0.25461,-1.04118 c -0.98224,-4.01673 -1.70523,-8.19689 -2.1326,-12.33029 -0.23277,-2.2512 -0.27918,-6.47177 -0.0865,-7.86682 0.31336,-2.2688 0.58797,-3.08083 1.28662,-3.80434 0.81904,-0.84819 1.67538,-1.13581 3.12023,-1.04799 3.7403,0.22734 7.62798,1.25162 10.80891,2.84783 3.09306,1.5521 5.30693,3.23085 8.02822,6.08763 l 0.8769,0.92059 1.56758,-0.50318 c 5.19964,-1.66902 10.17952,-2.40701 16.19008,-2.3993 4.54637,0.006 8.0067,0.38537 11.76162,1.29002 0.8221,0.19807 1.50765,0.34608 1.52341,0.32891 0.0158,-0.0172 0.34718,-0.44156 0.73649,-0.9431 2.01595,-2.59728 4.13784,-4.5845 6.69,-6.26547 1.11469,-0.73419 3.74977,-2.05338 5.11121,-2.55882 1.44661,-0.53705 3.65215,-1.15836 4.31119,-1.21448 1.1523,-0.0981 2.3408,0.43184 3.04304,1.35691 0.62062,0.81755 1.52445,3.06411 2.07163,5.14922 1.2116,4.61704 1.33204,10.03556 0.33955,15.27595 l -0.23318,1.23122 0.93053,0.9466 c 7.59713,7.72826 11.62379,17.44835 11.32887,27.34711 -0.15998,5.36941 -1.36162,10.1184 -3.78883,14.97381 -1.99316,3.98715 -4.06522,6.8313 -7.4207,10.18582 -2.38595,2.38527 -4.40633,4.0249 -7.11537,5.77447 -0.58667,0.3789 -1.08089,0.7014 -1.09825,0.71668 -0.0174,0.0153 0.0912,0.66026 0.2412,1.43329 1.33333,6.87072 2.02405,13.22232 2.36333,21.73238 l 0.0449,1.1265 -1.04227,0.50379 c -9.81935,4.74631 -20.79801,7.02211 -32.0651,6.64685 z m 9.28907,-16.89565 c 1.22921,-0.42239 2.24118,-0.98545 3.24451,-1.80526 1.05298,-0.86037 1.98661,-1.93152 2.40751,-2.76213 l 0.21549,-0.42524 0.88597,0.58049 c 1.11159,0.72833 2.65349,1.46511 3.9215,1.87387 1.50863,0.48632 1.83935,0.33684 2.12793,-0.96179 0.48456,-2.18048 0.37286,-4.94166 -0.3046,-7.52863 -0.33612,-1.28352 -0.64444,-1.47278 -1.76895,-1.08589 -1.86024,0.64002 -3.45892,1.69427 -4.70695,3.10405 l -0.421,0.47556 -0.60066,-0.44457 c -1.85482,-1.37282 -4.00319,-2.40292 -6.99384,-3.35341 -1.98475,-0.63079 -2.13416,-0.54819 -2.41626,1.3357 -0.21068,1.40686 -0.21105,3.99015 0,5.24455 0.3014,1.79785 0.8354,3.47522 1.58391,4.97526 0.5496,1.10144 0.60362,1.1432 1.40392,1.0853 0.38874,-0.0281 0.9817,-0.15647 1.42225,-0.30786 z m 4.31121,-36.37719 c 0.91155,-0.2879 1.58823,-0.65147 2.49531,-1.34066 0.9903,-0.75247 1.3225,-0.84224 2.22742,-0.6019 0.86058,0.22857 1.92574,0.3002 2.54519,0.17116 1.57616,-0.32833 3.13944,-1.71811 4.02128,-3.57499 0.50013,-1.05315 0.62488,-2.1269 0.26324,-2.26568 -0.21078,-0.0809 -0.53257,0.1891 -1.04867,0.8798 -0.89933,1.20358 -1.41767,1.553 -2.80048,1.88782 -1.17306,0.28403 -2.0667,0.0961 -3.52171,-0.74056 -0.43797,-0.25184 -0.86609,-0.45789 -0.9514,-0.45789 -0.32369,0 -0.61288,0.22282 -1.22115,0.94089 -1.13041,1.33447 -2.15322,1.96089 -3.60907,2.21039 -1.75614,0.30096 -2.74737,0.14409 -4.24902,-0.67247 -1.3525,-0.73544 -1.96994,-0.8559 -2.19845,-0.42892 -0.21578,0.40322 0.25279,1.22185 1.22361,2.13767 1.04819,0.9888 2.33024,1.67874 3.71271,1.998 0.77476,0.17892 2.31688,0.10821 3.11119,-0.14266 z m 3.11116,-9.05781 c 0.74749,-0.32736 1.64221,-1.26672 2.828,-2.96909 0.88274,-1.26727 1.029,-1.67129 0.86,-2.37574 -0.0742,-0.30947 -0.21533,-0.56687 -0.44037,-0.80345 -0.41198,-0.43307 -0.0995,-0.42831 -5.45061,-0.083 -3.05275,0.19702 -4.14213,0.29703 -4.35955,0.4002 -0.79265,0.37613 -0.8852,1.70213 -0.1766,2.52997 0.17254,0.20157 0.7994,0.73841 1.39304,1.19297 2.86685,2.1952 4.06679,2.66837 5.34609,2.1081 z m -29.84062,-11.33203 c 0.13203,-0.0685 0.45319,-0.38743 0.71369,-0.70885 2.86515,-3.5352 7.38812,-4.9368 11.79278,-3.65441 1.82456,0.53121 3.33193,1.43353 4.99562,2.99043 0.73361,0.68652 1.06248,0.80485 1.56892,0.56453 0.68298,-0.32409 0.7989,-0.8655 0.42458,-1.98276 -0.59037,-1.76215 -1.53511,-3.3153 -2.82669,-4.64709 -1.63396,-1.68482 -3.42618,-2.69134 -5.63287,-3.16342 -0.89939,-0.19241 -3.04008,-0.21559 -3.86253,-0.0418 -3.29825,0.69689 -5.97227,2.77832 -7.4959,5.83474 -0.49751,0.99802 -0.92693,2.29159 -1.08404,3.26551 -0.12769,0.79151 0.002,1.20587 0.46334,1.48752 0.34627,0.21111 0.61286,0.22683 0.9431,0.0556 z m 31.99423,-3.47726 c 2.2558,-2.25579 4.8764,-3.29185 7.89103,-3.11972 2.18481,0.12474 4.28776,0.9468 5.98143,2.3382 1.09467,0.8993 1.26146,1.00538 1.5806,1.00538 0.38753,0 0.81491,-0.36357 0.8885,-0.75585 0.0699,-0.37261 -0.18115,-1.16117 -0.68059,-2.13777 -2.10153,-4.10933 -6.60545,-6.19184 -10.96366,-5.06936 -3.27358,0.84313 -5.86319,3.47066 -6.70622,6.80444 -0.22459,0.88808 -0.23226,1.08399 -0.0558,1.42521 0.17132,0.33128 0.36217,0.4384 0.78709,0.44175 0.31789,0.002 0.41021,-0.0649 1.27763,-0.93228 z"
       id="path1082" /><path
       style="display:inline;fill:#4c4f69;stroke-width:0.0888906;fill-opacity:1"
       d="m 497.41611,633.51576 c -1.34736,-0.0449 -4.27634,-0.28501 -5.82234,-0.47735 -7.96834,-0.99136 -15.38373,-3.27063 -22.60043,-6.9467 -1.65492,-0.84299 -1.93337,-1.01367 -1.93337,-1.18506 0,-0.23722 0.34489,-2.63279 0.65829,-4.57239 0.77062,-4.76936 1.88262,-9.57727 3.20369,-13.85153 0.32039,-1.03665 0.58251,-1.91422 0.58245,-1.95014 -4e-5,-0.0359 -0.33005,-0.24249 -0.73334,-0.45905 -4.84895,-2.60374 -9.05553,-6.2555 -12.03871,-10.45091 -1.86485,-2.62264 -3.48205,-5.9312 -4.43635,-9.07618 -1.90898,-6.29122 -2.12675,-13.89395 -0.60953,-21.27997 1.13175,-5.50954 3.25521,-10.68453 6.15643,-15.00359 l 0.43509,-0.64774 -0.25461,-1.04118 c -0.98224,-4.01673 -1.70523,-8.19689 -2.1326,-12.33029 -0.23277,-2.2512 -0.27918,-6.47177 -0.0865,-7.86682 0.31336,-2.2688 0.58797,-3.08083 1.28662,-3.80434 0.81904,-0.84819 1.67538,-1.13581 3.12023,-1.04799 3.7403,0.22734 7.62798,1.25162 10.80891,2.84783 3.09306,1.5521 5.30693,3.23085 8.02822,6.08763 l 0.8769,0.92059 1.56758,-0.50318 c 5.19964,-1.66902 10.17952,-2.40701 16.19008,-2.3993 4.54637,0.006 8.0067,0.38537 11.76162,1.29002 0.8221,0.19807 1.50765,0.34608 1.52341,0.32891 0.0158,-0.0172 0.34718,-0.44156 0.73649,-0.9431 2.01595,-2.59728 4.13784,-4.5845 6.69,-6.26547 1.11469,-0.73419 3.74977,-2.05338 5.11121,-2.55882 1.44661,-0.53705 3.65215,-1.15836 4.31119,-1.21448 1.1523,-0.0981 2.3408,0.43184 3.04304,1.35691 0.62062,0.81755 1.52445,3.06411 2.07163,5.14922 1.2116,4.61704 1.33204,10.03556 0.33955,15.27595 l -0.23318,1.23122 0.93053,0.9466 c 7.59713,7.72826 11.62379,17.44835 11.32887,27.34711 -0.15998,5.36941 -1.36162,10.1184 -3.78883,14.97381 -1.99316,3.98715 -4.06522,6.8313 -7.4207,10.18582 -2.38595,2.38527 -4.40633,4.0249 -7.11537,5.77447 -0.58667,0.3789 -1.08089,0.7014 -1.09825,0.71668 -0.0174,0.0153 0.0912,0.66026 0.2412,1.43329 1.33333,6.87072 2.02405,13.22232 2.36333,21.73238 l 0.0449,1.1265 -1.04227,0.50379 c -9.81935,4.74631 -20.79801,7.02211 -32.0651,6.64685 z m 9.28907,-16.89565 c 1.22921,-0.42239 2.24118,-0.98545 3.24451,-1.80526 1.05298,-0.86037 1.98661,-1.93152 2.40751,-2.76213 l 0.21549,-0.42524 0.88597,0.58049 c 1.11159,0.72833 2.65349,1.46511 3.9215,1.87387 1.50863,0.48632 1.83935,0.33684 2.12793,-0.96179 0.48456,-2.18048 0.37286,-4.94166 -0.3046,-7.52863 -0.33612,-1.28352 -0.64444,-1.47278 -1.76895,-1.08589 -1.86024,0.64002 -3.45892,1.69427 -4.70695,3.10405 l -0.421,0.47556 -0.60066,-0.44457 c -1.85482,-1.37282 -4.00319,-2.40292 -6.99384,-3.35341 -1.98475,-0.63079 -2.13416,-0.54819 -2.41626,1.3357 -0.21068,1.40686 -0.21105,3.99015 0,5.24455 0.3014,1.79785 0.8354,3.47522 1.58391,4.97526 0.5496,1.10144 0.60362,1.1432 1.40392,1.0853 0.38874,-0.0281 0.9817,-0.15647 1.42225,-0.30786 z m 4.31121,-36.37719 c 0.91155,-0.2879 1.58823,-0.65147 2.49531,-1.34066 0.9903,-0.75247 1.3225,-0.84224 2.22742,-0.6019 0.86058,0.22857 1.92574,0.3002 2.54519,0.17116 1.57616,-0.32833 3.13944,-1.71811 4.02128,-3.57499 0.50013,-1.05315 0.62488,-2.1269 0.26324,-2.26568 -0.21078,-0.0809 -0.53257,0.1891 -1.04867,0.8798 -0.89933,1.20358 -1.41767,1.553 -2.80048,1.88782 -1.17306,0.28403 -2.0667,0.0961 -3.52171,-0.74056 -0.43797,-0.25184 -0.86609,-0.45789 -0.9514,-0.45789 -0.32369,0 -0.61288,0.22282 -1.22115,0.94089 -1.13041,1.33447 -2.15322,1.96089 -3.60907,2.21039 -1.75614,0.30096 -2.74737,0.14409 -4.24902,-0.67247 -1.3525,-0.73544 -1.96994,-0.8559 -2.19845,-0.42892 -0.21578,0.40322 0.25279,1.22185 1.22361,2.13767 1.04819,0.9888 2.33024,1.67874 3.71271,1.998 0.77476,0.17892 2.31688,0.10821 3.11119,-0.14266 z m 3.11116,-9.05781 c 0.74749,-0.32736 1.64221,-1.26672 2.828,-2.96909 0.88274,-1.26727 1.029,-1.67129 0.86,-2.37574 -0.0742,-0.30947 -0.21533,-0.56687 -0.44037,-0.80345 -0.41198,-0.43307 -0.0995,-0.42831 -5.45061,-0.083 -3.05275,0.19702 -4.14213,0.29703 -4.35955,0.4002 -0.79265,0.37613 -0.8852,1.70213 -0.1766,2.52997 0.17254,0.20157 0.7994,0.73841 1.39304,1.19297 2.86685,2.1952 4.06679,2.66837 5.34609,2.1081 z m -29.84062,-11.33203 c 0.13203,-0.0685 0.45319,-0.38743 0.71369,-0.70885 2.86515,-3.5352 7.38812,-4.9368 11.79278,-3.65441 1.82456,0.53121 3.33193,1.43353 4.99562,2.99043 0.73361,0.68652 1.06248,0.80485 1.56892,0.56453 0.68298,-0.32409 0.7989,-0.8655 0.42458,-1.98276 -0.59037,-1.76215 -1.53511,-3.3153 -2.82669,-4.64709 -1.63396,-1.68482 -3.42618,-2.69134 -5.63287,-3.16342 -0.89939,-0.19241 -3.04008,-0.21559 -3.86253,-0.0418 -3.29825,0.69689 -5.97227,2.77832 -7.4959,5.83474 -0.49751,0.99802 -0.92693,2.29159 -1.08404,3.26551 -0.12769,0.79151 0.002,1.20587 0.46334,1.48752 0.34627,0.21111 0.61286,0.22683 0.9431,0.0556 z m 31.99423,-3.47726 c 2.2558,-2.25579 4.8764,-3.29185 7.89103,-3.11972 2.18481,0.12474 4.28776,0.9468 5.98143,2.3382 1.09467,0.8993 1.26146,1.00538 1.5806,1.00538 0.38753,0 0.81491,-0.36357 0.8885,-0.75585 0.0699,-0.37261 -0.18115,-1.16117 -0.68059,-2.13777 -2.10153,-4.10933 -6.60545,-6.19184 -10.96366,-5.06936 -3.27358,0.84313 -5.86319,3.47066 -6.70622,6.80444 -0.22459,0.88808 -0.23226,1.08399 -0.0558,1.42521 0.17132,0.33128 0.36217,0.4384 0.78709,0.44175 0.31789,0.002 0.41021,-0.0649 1.27763,-0.93228 z"
       id="path1084" /><path
       style="display:inline;fill:#4c4f69;stroke-width:0.0888906;fill-opacity:1"
       d="m 747.41611,633.51576 c -1.34736,-0.0449 -4.27634,-0.28501 -5.82234,-0.47735 -7.96834,-0.99136 -15.38373,-3.27063 -22.60043,-6.9467 -1.65492,-0.84299 -1.93337,-1.01367 -1.93337,-1.18506 0,-0.23722 0.34489,-2.63279 0.65829,-4.57239 0.77062,-4.76936 1.88262,-9.57727 3.20369,-13.85153 0.32039,-1.03665 0.58251,-1.91422 0.58245,-1.95014 -4e-5,-0.0359 -0.33005,-0.24249 -0.73334,-0.45905 -4.84895,-2.60374 -9.05553,-6.2555 -12.03871,-10.45091 -1.86485,-2.62264 -3.48205,-5.9312 -4.43635,-9.07618 -1.90898,-6.29122 -2.12675,-13.89395 -0.60953,-21.27997 1.13175,-5.50954 3.25521,-10.68453 6.15643,-15.00359 l 0.43509,-0.64774 -0.25461,-1.04118 c -0.98224,-4.01673 -1.70523,-8.19689 -2.1326,-12.33029 -0.23277,-2.2512 -0.27918,-6.47177 -0.0865,-7.86682 0.31336,-2.2688 0.58797,-3.08083 1.28662,-3.80434 0.81904,-0.84819 1.67538,-1.13581 3.12023,-1.04799 3.7403,0.22734 7.62798,1.25162 10.80891,2.84783 3.09306,1.5521 5.30693,3.23085 8.02822,6.08763 l 0.8769,0.92059 1.56758,-0.50318 c 5.19964,-1.66902 10.17952,-2.40701 16.19008,-2.3993 4.54637,0.006 8.0067,0.38537 11.76162,1.29002 0.8221,0.19807 1.50765,0.34608 1.52341,0.32891 0.0158,-0.0172 0.34718,-0.44156 0.73649,-0.9431 2.01595,-2.59728 4.13784,-4.5845 6.69,-6.26547 1.11469,-0.73419 3.74977,-2.05338 5.11121,-2.55882 1.44661,-0.53705 3.65215,-1.15836 4.31119,-1.21448 1.1523,-0.0981 2.3408,0.43184 3.04304,1.35691 0.62062,0.81755 1.52445,3.06411 2.07163,5.14922 1.2116,4.61704 1.33204,10.03556 0.33955,15.27595 l -0.23318,1.23122 0.93053,0.9466 c 7.59713,7.72826 11.62379,17.44835 11.32887,27.34711 -0.15998,5.36941 -1.36162,10.1184 -3.78883,14.97381 -1.99316,3.98715 -4.06522,6.8313 -7.4207,10.18582 -2.38595,2.38527 -4.40633,4.0249 -7.11537,5.77447 -0.58667,0.3789 -1.08089,0.7014 -1.09825,0.71668 -0.0174,0.0153 0.0912,0.66026 0.2412,1.43329 1.33333,6.87072 2.02405,13.22232 2.36333,21.73238 l 0.0449,1.1265 -1.04227,0.50379 c -9.81935,4.74631 -20.79801,7.02211 -32.0651,6.64685 z m 9.28907,-16.89565 c 1.22921,-0.42239 2.24118,-0.98545 3.24451,-1.80526 1.05298,-0.86037 1.98661,-1.93152 2.40751,-2.76213 l 0.21549,-0.42524 0.88597,0.58049 c 1.11159,0.72833 2.65349,1.46511 3.9215,1.87387 1.50863,0.48632 1.83935,0.33684 2.12793,-0.96179 0.48456,-2.18048 0.37286,-4.94166 -0.3046,-7.52863 -0.33612,-1.28352 -0.64444,-1.47278 -1.76895,-1.08589 -1.86024,0.64002 -3.45892,1.69427 -4.70695,3.10405 l -0.421,0.47556 -0.60066,-0.44457 c -1.85482,-1.37282 -4.00319,-2.40292 -6.99384,-3.35341 -1.98475,-0.63079 -2.13416,-0.54819 -2.41626,1.3357 -0.21068,1.40686 -0.21105,3.99015 0,5.24455 0.3014,1.79785 0.8354,3.47522 1.58391,4.97526 0.5496,1.10144 0.60362,1.1432 1.40392,1.0853 0.38874,-0.0281 0.9817,-0.15647 1.42225,-0.30786 z m 4.31121,-36.37719 c 0.91155,-0.2879 1.58823,-0.65147 2.49531,-1.34066 0.9903,-0.75247 1.3225,-0.84224 2.22742,-0.6019 0.86058,0.22857 1.92574,0.3002 2.54519,0.17116 1.57616,-0.32833 3.13944,-1.71811 4.02128,-3.57499 0.50013,-1.05315 0.62488,-2.1269 0.26324,-2.26568 -0.21078,-0.0809 -0.53257,0.1891 -1.04867,0.8798 -0.89933,1.20358 -1.41767,1.553 -2.80048,1.88782 -1.17306,0.28403 -2.0667,0.0961 -3.52171,-0.74056 -0.43797,-0.25184 -0.86609,-0.45789 -0.9514,-0.45789 -0.32369,0 -0.61288,0.22282 -1.22115,0.94089 -1.13041,1.33447 -2.15322,1.96089 -3.60907,2.21039 -1.75614,0.30096 -2.74737,0.14409 -4.24902,-0.67247 -1.3525,-0.73544 -1.96994,-0.8559 -2.19845,-0.42892 -0.21578,0.40322 0.25279,1.22185 1.22361,2.13767 1.04819,0.9888 2.33024,1.67874 3.71271,1.998 0.77476,0.17892 2.31688,0.10821 3.11119,-0.14266 z m 3.11116,-9.05781 c 0.74749,-0.32736 1.64221,-1.26672 2.828,-2.96909 0.88274,-1.26727 1.029,-1.67129 0.86,-2.37574 -0.0742,-0.30947 -0.21533,-0.56687 -0.44037,-0.80345 -0.41198,-0.43307 -0.0995,-0.42831 -5.45061,-0.083 -3.05275,0.19702 -4.14213,0.29703 -4.35955,0.4002 -0.79265,0.37613 -0.8852,1.70213 -0.1766,2.52997 0.17254,0.20157 0.7994,0.73841 1.39304,1.19297 2.86685,2.1952 4.06679,2.66837 5.34609,2.1081 z m -29.84062,-11.33203 c 0.13203,-0.0685 0.45319,-0.38743 0.71369,-0.70885 2.86515,-3.5352 7.38812,-4.9368 11.79278,-3.65441 1.82456,0.53121 3.33193,1.43353 4.99562,2.99043 0.73361,0.68652 1.06248,0.80485 1.56892,0.56453 0.68298,-0.32409 0.7989,-0.8655 0.42458,-1.98276 -0.59037,-1.76215 -1.53511,-3.3153 -2.82669,-4.64709 -1.63396,-1.68482 -3.42618,-2.69134 -5.63287,-3.16342 -0.89939,-0.19241 -3.04008,-0.21559 -3.86253,-0.0418 -3.29825,0.69689 -5.97227,2.77832 -7.4959,5.83474 -0.49751,0.99802 -0.92693,2.29159 -1.08404,3.26551 -0.12769,0.79151 0.002,1.20587 0.46334,1.48752 0.34627,0.21111 0.61286,0.22683 0.9431,0.0556 z m 31.99423,-3.47726 c 2.2558,-2.25579 4.8764,-3.29185 7.89103,-3.11972 2.18481,0.12474 4.28776,0.9468 5.98143,2.3382 1.09467,0.8993 1.26146,1.00538 1.5806,1.00538 0.38753,0 0.81491,-0.36357 0.8885,-0.75585 0.0699,-0.37261 -0.18115,-1.16117 -0.68059,-2.13777 -2.10153,-4.10933 -6.60545,-6.19184 -10.96366,-5.06936 -3.27358,0.84313 -5.86319,3.47066 -6.70622,6.80444 -0.22459,0.88808 -0.23226,1.08399 -0.0558,1.42521 0.17132,0.33128 0.36217,0.4384 0.78709,0.44175 0.31789,0.002 0.41021,-0.0649 1.27763,-0.93228 z"
       id="path1086" /><path
       style="display:inline;fill:#4c4f69;stroke-width:0.0888906;fill-opacity:1"
       d="m 997.41609,633.51576 c -1.3473,-0.0449 -4.2763,-0.28501 -5.8223,-0.47735 -7.9684,-0.99136 -15.38376,-3.27063 -22.60046,-6.9467 -1.65492,-0.84299 -1.93337,-1.01367 -1.93337,-1.18506 0,-0.23722 0.34489,-2.63279 0.65829,-4.57239 0.77062,-4.76936 1.88262,-9.57727 3.20369,-13.85153 0.32039,-1.03665 0.58251,-1.91422 0.58245,-1.95014 -4e-5,-0.0359 -0.33005,-0.24249 -0.73334,-0.45905 -4.84895,-2.60374 -9.05553,-6.2555 -12.03871,-10.45091 -1.86485,-2.62264 -3.48205,-5.9312 -4.43635,-9.07618 -1.90898,-6.29122 -2.12675,-13.89395 -0.60953,-21.27997 1.13175,-5.50954 3.25521,-10.68453 6.15643,-15.00359 l 0.43509,-0.64774 -0.25461,-1.04118 c -0.98224,-4.01673 -1.70523,-8.19689 -2.1326,-12.33029 -0.23277,-2.2512 -0.27918,-6.47177 -0.0865,-7.86682 0.31336,-2.2688 0.58797,-3.08083 1.28662,-3.80434 0.81904,-0.84819 1.67538,-1.13581 3.12023,-1.04799 3.7403,0.22734 7.62798,1.25162 10.80891,2.84783 3.09306,1.5521 5.30693,3.23085 8.02822,6.08763 l 0.8769,0.92059 1.56754,-0.50318 c 5.1997,-1.66902 10.1796,-2.40701 16.1901,-2.3993 4.54641,0.006 8.00671,0.38537 11.76161,1.29002 0.8221,0.19807 1.5077,0.34608 1.5235,0.32891 0.016,-0.0172 0.3471,-0.44156 0.7364,-0.9431 2.016,-2.59728 4.1379,-4.5845 6.69,-6.26547 1.1147,-0.73419 3.7498,-2.05338 5.1113,-2.55882 1.4466,-0.53705 3.6521,-1.15836 4.3111,-1.21448 1.1523,-0.0981 2.3408,0.43184 3.0431,1.35691 0.6206,0.81755 1.5244,3.06411 2.0716,5.14922 1.2116,4.61704 1.3321,10.03556 0.3396,15.27595 l -0.2332,1.23122 0.9305,0.9466 c 7.5971,7.72826 11.6238,17.44835 11.3289,27.34711 -0.16,5.36941 -1.3616,10.1184 -3.7888,14.97381 -1.9932,3.98715 -4.0653,6.8313 -7.4207,10.18582 -2.386,2.38527 -4.4064,4.0249 -7.1154,5.77447 -0.5867,0.3789 -1.0809,0.7014 -1.0983,0.71668 -0.017,0.0153 0.091,0.66026 0.2412,1.43329 1.3334,6.87072 2.0241,13.22232 2.3634,21.73238 l 0.045,1.1265 -1.0423,0.50379 c -9.8194,4.74631 -20.798,7.02211 -32.06511,6.64685 z m 9.28911,-16.89565 c 1.2292,-0.42239 2.2412,-0.98545 3.2445,-1.80526 1.053,-0.86037 1.9866,-1.93152 2.4075,-2.76213 l 0.2155,-0.42524 0.886,0.58049 c 1.1116,0.72833 2.6535,1.46511 3.9215,1.87387 1.5086,0.48632 1.8393,0.33684 2.1279,-0.96179 0.4846,-2.18048 0.3729,-4.94166 -0.3046,-7.52863 -0.3361,-1.28352 -0.6444,-1.47278 -1.769,-1.08589 -1.8602,0.64002 -3.4589,1.69427 -4.7069,3.10405 l -0.421,0.47556 -0.6007,-0.44457 c -1.8548,-1.37282 -4.0032,-2.40292 -6.9938,-3.35341 -1.9848,-0.63079 -2.1342,-0.54819 -2.4163,1.3357 -0.2106,1.40686 -0.211,3.99015 0,5.24455 0.3014,1.79785 0.8354,3.47522 1.5839,4.97526 0.5496,1.10144 0.6037,1.1432 1.404,1.0853 0.3887,-0.0281 0.9817,-0.15647 1.4222,-0.30786 z m 4.3112,-36.37719 c 0.9115,-0.2879 1.5882,-0.65147 2.4953,-1.34066 0.9903,-0.75247 1.3225,-0.84224 2.2274,-0.6019 0.8606,0.22857 1.9258,0.3002 2.5452,0.17116 1.5762,-0.32833 3.1395,-1.71811 4.0213,-3.57499 0.5001,-1.05315 0.6249,-2.1269 0.2632,-2.26568 -0.2107,-0.0809 -0.5325,0.1891 -1.0486,0.8798 -0.8994,1.20358 -1.4177,1.553 -2.8005,1.88782 -1.1731,0.28403 -2.0667,0.0961 -3.5217,-0.74056 -0.438,-0.25184 -0.8661,-0.45789 -0.9514,-0.45789 -0.3237,0 -0.6129,0.22282 -1.2212,0.94089 -1.1304,1.33447 -2.1532,1.96089 -3.609,2.21039 -1.7562,0.30096 -2.7474,0.14409 -4.2491,-0.67247 -1.3525,-0.73544 -1.9699,-0.8559 -2.1984,-0.42892 -0.2158,0.40322 0.2528,1.22185 1.2236,2.13767 1.0482,0.9888 2.3302,1.67874 3.7127,1.998 0.7748,0.17892 2.3169,0.10821 3.1112,-0.14266 z m 3.1112,-9.05781 c 0.7474,-0.32736 1.6422,-1.26672 2.828,-2.96909 0.8827,-1.26727 1.029,-1.67129 0.86,-2.37574 -0.074,-0.30947 -0.2154,-0.56687 -0.4404,-0.80345 -0.412,-0.43307 -0.1,-0.42831 -5.4506,-0.083 -3.0528,0.19702 -4.1422,0.29703 -4.3596,0.4002 -0.7926,0.37613 -0.8852,1.70213 -0.1766,2.52997 0.1726,0.20157 0.7994,0.73841 1.3931,1.19297 2.8668,2.1952 4.0668,2.66837 5.3461,2.1081 z m -29.84071,-11.33203 c 0.1321,-0.0685 0.4532,-0.38743 0.7137,-0.70885 2.8652,-3.5352 7.3881,-4.9368 11.7928,-3.65441 1.8246,0.53121 3.33191,1.43353 4.99561,2.99043 0.7336,0.68652 1.0625,0.80485 1.5689,0.56453 0.683,-0.32409 0.7989,-0.8655 0.4246,-1.98276 -0.5903,-1.76215 -1.5351,-3.3153 -2.8267,-4.64709 -1.63391,-1.68482 -3.42611,-2.69134 -5.63281,-3.16342 -0.8994,-0.19241 -3.0401,-0.21559 -3.8626,-0.0418 -3.2982,0.69689 -5.9722,2.77832 -7.4959,5.83474 -0.4975,0.99802 -0.9269,2.29159 -1.08401,3.26551 -0.12769,0.79151 0.002,1.20587 0.46331,1.48752 0.3463,0.21111 0.6129,0.22683 0.9431,0.0556 z m 31.99431,-3.47726 c 2.2558,-2.25579 4.8764,-3.29185 7.891,-3.11972 2.1848,0.12474 4.2878,0.9468 5.9814,2.3382 1.0947,0.8993 1.2615,1.00538 1.5806,1.00538 0.3876,0 0.8149,-0.36357 0.8885,-0.75585 0.07,-0.37261 -0.1811,-1.16117 -0.6806,-2.13777 -2.1015,-4.10933 -6.6054,-6.19184 -10.9636,-5.06936 -3.2736,0.84313 -5.8632,3.47066 -6.7062,6.80444 -0.2246,0.88808 -0.2323,1.08399 -0.056,1.42521 0.1713,0.33128 0.3621,0.4384 0.787,0.44175 0.3179,0.002 0.4103,-0.0649 1.2777,-0.93228 z"
       id="path1088" /><path
       style="display:inline;fill:#4c4f69;stroke-width:0.0888906;fill-opacity:1"
       d="m 1247.4159,633.51576 c -1.3473,-0.0449 -4.2763,-0.28501 -5.8223,-0.47735 -7.9684,-0.99136 -15.3838,-3.27063 -22.6005,-6.9467 -1.6549,-0.84299 -1.9334,-1.01367 -1.9334,-1.18506 0,-0.23722 0.3449,-2.63279 0.6583,-4.57239 0.7707,-4.76936 1.8827,-9.57727 3.2037,-13.85153 0.3204,-1.03665 0.5825,-1.91422 0.5825,-1.95014 -10e-5,-0.0359 -0.3301,-0.24249 -0.7334,-0.45905 -4.8489,-2.60374 -9.0555,-6.2555 -12.0387,-10.45091 -1.8648,-2.62264 -3.482,-5.9312 -4.4363,-9.07618 -1.909,-6.29122 -2.1268,-13.89395 -0.6096,-21.27997 1.1318,-5.50954 3.2553,-10.68453 6.1565,-15.00359 l 0.4351,-0.64774 -0.2546,-1.04118 c -0.9823,-4.01673 -1.7053,-8.19689 -2.1326,-12.33029 -0.2328,-2.2512 -0.2792,-6.47177 -0.086,-7.86682 0.3133,-2.2688 0.5879,-3.08083 1.2866,-3.80434 0.819,-0.84819 1.6754,-1.13581 3.1202,-1.04799 3.7403,0.22734 7.628,1.25162 10.8089,2.84783 3.0931,1.5521 5.3069,3.23085 8.0282,6.08763 l 0.8769,0.92059 1.5676,-0.50318 c 5.1997,-1.66902 10.1796,-2.40701 16.1901,-2.3993 4.5464,0.006 8.0067,0.38537 11.7616,1.29002 0.8221,0.19807 1.5077,0.34608 1.5235,0.32891 0.016,-0.0172 0.3471,-0.44156 0.7364,-0.9431 2.016,-2.59728 4.1379,-4.5845 6.69,-6.26547 1.1147,-0.73419 3.7498,-2.05338 5.1113,-2.55882 1.4466,-0.53705 3.6521,-1.15836 4.3111,-1.21448 1.1523,-0.0981 2.3408,0.43184 3.0431,1.35691 0.6206,0.81755 1.5244,3.06411 2.0716,5.14922 1.2116,4.61704 1.3321,10.03556 0.3396,15.27595 l -0.2332,1.23122 0.9305,0.9466 c 7.5971,7.72826 11.6238,17.44835 11.3289,27.34711 -0.16,5.36941 -1.3616,10.1184 -3.7888,14.97381 -1.9932,3.98715 -4.0653,6.8313 -7.4207,10.18582 -2.386,2.38527 -4.4064,4.0249 -7.1154,5.77447 -0.5867,0.3789 -1.0809,0.7014 -1.0983,0.71668 -0.017,0.0153 0.091,0.66026 0.2412,1.43329 1.3334,6.87072 2.0241,13.22232 2.3634,21.73238 l 0.045,1.1265 -1.0423,0.50379 c -9.8194,4.74631 -20.798,7.02211 -32.0651,6.64685 z m 9.2891,-16.89565 c 1.2292,-0.42239 2.2412,-0.98545 3.2445,-1.80526 1.053,-0.86037 1.9866,-1.93152 2.4075,-2.76213 l 0.2155,-0.42524 0.886,0.58049 c 1.1116,0.72833 2.6535,1.46511 3.9215,1.87387 1.5086,0.48632 1.8393,0.33684 2.1279,-0.96179 0.4846,-2.18048 0.3729,-4.94166 -0.3046,-7.52863 -0.3361,-1.28352 -0.6444,-1.47278 -1.769,-1.08589 -1.8602,0.64002 -3.4589,1.69427 -4.7069,3.10405 l -0.421,0.47556 -0.6007,-0.44457 c -1.8548,-1.37282 -4.0032,-2.40292 -6.9938,-3.35341 -1.9848,-0.63079 -2.1342,-0.54819 -2.4163,1.3357 -0.2106,1.40686 -0.211,3.99015 0,5.24455 0.3014,1.79785 0.8354,3.47522 1.5839,4.97526 0.5496,1.10144 0.6037,1.1432 1.404,1.0853 0.3887,-0.0281 0.9817,-0.15647 1.4222,-0.30786 z m 4.3112,-36.37719 c 0.9115,-0.2879 1.5882,-0.65147 2.4953,-1.34066 0.9903,-0.75247 1.3225,-0.84224 2.2274,-0.6019 0.8606,0.22857 1.9258,0.3002 2.5452,0.17116 1.5762,-0.32833 3.1395,-1.71811 4.0213,-3.57499 0.5001,-1.05315 0.6249,-2.1269 0.2632,-2.26568 -0.2107,-0.0809 -0.5325,0.1891 -1.0486,0.8798 -0.8994,1.20358 -1.4177,1.553 -2.8005,1.88782 -1.1731,0.28403 -2.0667,0.0961 -3.5217,-0.74056 -0.438,-0.25184 -0.8661,-0.45789 -0.9514,-0.45789 -0.3237,0 -0.6129,0.22282 -1.2212,0.94089 -1.1304,1.33447 -2.1532,1.96089 -3.609,2.21039 -1.7562,0.30096 -2.7474,0.14409 -4.2491,-0.67247 -1.3525,-0.73544 -1.9699,-0.8559 -2.1984,-0.42892 -0.2158,0.40322 0.2528,1.22185 1.2236,2.13767 1.0482,0.9888 2.3302,1.67874 3.7127,1.998 0.7748,0.17892 2.3169,0.10821 3.1112,-0.14266 z m 3.1112,-9.05781 c 0.7474,-0.32736 1.6422,-1.26672 2.828,-2.96909 0.8827,-1.26727 1.029,-1.67129 0.86,-2.37574 -0.074,-0.30947 -0.2154,-0.56687 -0.4404,-0.80345 -0.412,-0.43307 -0.1,-0.42831 -5.4506,-0.083 -3.0528,0.19702 -4.1422,0.29703 -4.3596,0.4002 -0.7926,0.37613 -0.8852,1.70213 -0.1766,2.52997 0.1726,0.20157 0.7994,0.73841 1.3931,1.19297 2.8668,2.1952 4.0668,2.66837 5.3461,2.1081 z m -29.8407,-11.33203 c 0.1321,-0.0685 0.4532,-0.38743 0.7137,-0.70885 2.8652,-3.5352 7.3881,-4.9368 11.7928,-3.65441 1.8246,0.53121 3.3319,1.43353 4.9956,2.99043 0.7336,0.68652 1.0625,0.80485 1.5689,0.56453 0.683,-0.32409 0.7989,-0.8655 0.4246,-1.98276 -0.5903,-1.76215 -1.5351,-3.3153 -2.8267,-4.64709 -1.6339,-1.68482 -3.4261,-2.69134 -5.6328,-3.16342 -0.8994,-0.19241 -3.0401,-0.21559 -3.8626,-0.0418 -3.2982,0.69689 -5.9722,2.77832 -7.4959,5.83474 -0.4975,0.99802 -0.9269,2.29159 -1.084,3.26551 -0.1277,0.79151 0,1.20587 0.4633,1.48752 0.3463,0.21111 0.6129,0.22683 0.9431,0.0556 z m 31.9943,-3.47726 c 2.2558,-2.25579 4.8764,-3.29185 7.891,-3.11972 2.1848,0.12474 4.2878,0.9468 5.9814,2.3382 1.0947,0.8993 1.2615,1.00538 1.5806,1.00538 0.3876,0 0.8149,-0.36357 0.8885,-0.75585 0.07,-0.37261 -0.1811,-1.16117 -0.6806,-2.13777 -2.1015,-4.10933 -6.6054,-6.19184 -10.9636,-5.06936 -3.2736,0.84313 -5.8632,3.47066 -6.7062,6.80444 -0.2246,0.88808 -0.2323,1.08399 -0.056,1.42521 0.1713,0.33128 0.3621,0.4384 0.787,0.44175 0.3179,0.002 0.4103,-0.0649 1.2777,-0.93228 z"
       id="path1090" /><path
       style="display:inline;fill:#4c4f69;stroke-width:0.0888906;fill-opacity:1"
       d="m 1497.4159,633.51576 c -1.3473,-0.0449 -4.2763,-0.28501 -5.8223,-0.47735 -7.9684,-0.99136 -15.3838,-3.27063 -22.6005,-6.9467 -1.6549,-0.84299 -1.9334,-1.01367 -1.9334,-1.18506 0,-0.23722 0.3449,-2.63279 0.6583,-4.57239 0.7707,-4.76936 1.8827,-9.57727 3.2037,-13.85153 0.3204,-1.03665 0.5825,-1.91422 0.5825,-1.95014 -10e-5,-0.0359 -0.3301,-0.24249 -0.7334,-0.45905 -4.8489,-2.60374 -9.0555,-6.2555 -12.0387,-10.45091 -1.8648,-2.62264 -3.482,-5.9312 -4.4363,-9.07618 -1.909,-6.29122 -2.1268,-13.89395 -0.6096,-21.27997 1.1318,-5.50954 3.2553,-10.68453 6.1565,-15.00359 l 0.4351,-0.64774 -0.2546,-1.04118 c -0.9823,-4.01673 -1.7053,-8.19689 -2.1326,-12.33029 -0.2328,-2.2512 -0.2792,-6.47177 -0.086,-7.86682 0.3133,-2.2688 0.5879,-3.08083 1.2866,-3.80434 0.819,-0.84819 1.6754,-1.13581 3.1202,-1.04799 3.7403,0.22734 7.628,1.25162 10.8089,2.84783 3.0931,1.5521 5.3069,3.23085 8.0282,6.08763 l 0.8769,0.92059 1.5676,-0.50318 c 5.1997,-1.66902 10.1796,-2.40701 16.1901,-2.3993 4.5464,0.006 8.0067,0.38537 11.7616,1.29002 0.8221,0.19807 1.5077,0.34608 1.5235,0.32891 0.016,-0.0172 0.3471,-0.44156 0.7364,-0.9431 2.016,-2.59728 4.1379,-4.5845 6.69,-6.26547 1.1147,-0.73419 3.7498,-2.05338 5.1113,-2.55882 1.4466,-0.53705 3.6521,-1.15836 4.3111,-1.21448 1.1523,-0.0981 2.3408,0.43184 3.0431,1.35691 0.6206,0.81755 1.5244,3.06411 2.0716,5.14922 1.2116,4.61704 1.3321,10.03556 0.3396,15.27595 l -0.2332,1.23122 0.9305,0.9466 c 7.5971,7.72826 11.6238,17.44835 11.3289,27.34711 -0.16,5.36941 -1.3616,10.1184 -3.7888,14.97381 -1.9932,3.98715 -4.0653,6.8313 -7.4207,10.18582 -2.386,2.38527 -4.4064,4.0249 -7.1154,5.77447 -0.5867,0.3789 -1.0809,0.7014 -1.0983,0.71668 -0.017,0.0153 0.091,0.66026 0.2412,1.43329 1.3334,6.87072 2.0241,13.22232 2.3634,21.73238 l 0.045,1.1265 -1.0423,0.50379 c -9.8194,4.74631 -20.798,7.02211 -32.0651,6.64685 z m 9.2891,-16.89565 c 1.2292,-0.42239 2.2412,-0.98545 3.2445,-1.80526 1.053,-0.86037 1.9866,-1.93152 2.4075,-2.76213 l 0.2155,-0.42524 0.886,0.58049 c 1.1116,0.72833 2.6535,1.46511 3.9215,1.87387 1.5086,0.48632 1.8393,0.33684 2.1279,-0.96179 0.4846,-2.18048 0.3729,-4.94166 -0.3046,-7.52863 -0.3361,-1.28352 -0.6444,-1.47278 -1.769,-1.08589 -1.8602,0.64002 -3.4589,1.69427 -4.7069,3.10405 l -0.421,0.47556 -0.6007,-0.44457 c -1.8548,-1.37282 -4.0032,-2.40292 -6.9938,-3.35341 -1.9848,-0.63079 -2.1342,-0.54819 -2.4163,1.3357 -0.2106,1.40686 -0.211,3.99015 0,5.24455 0.3014,1.79785 0.8354,3.47522 1.5839,4.97526 0.5496,1.10144 0.6037,1.1432 1.404,1.0853 0.3887,-0.0281 0.9817,-0.15647 1.4222,-0.30786 z m 4.3112,-36.37719 c 0.9115,-0.2879 1.5882,-0.65147 2.4953,-1.34066 0.9903,-0.75247 1.3225,-0.84224 2.2274,-0.6019 0.8606,0.22857 1.9258,0.3002 2.5452,0.17116 1.5762,-0.32833 3.1395,-1.71811 4.0213,-3.57499 0.5001,-1.05315 0.6249,-2.1269 0.2632,-2.26568 -0.2107,-0.0809 -0.5325,0.1891 -1.0486,0.8798 -0.8994,1.20358 -1.4177,1.553 -2.8005,1.88782 -1.1731,0.28403 -2.0667,0.0961 -3.5217,-0.74056 -0.438,-0.25184 -0.8661,-0.45789 -0.9514,-0.45789 -0.3237,0 -0.6129,0.22282 -1.2212,0.94089 -1.1304,1.33447 -2.1532,1.96089 -3.609,2.21039 -1.7562,0.30096 -2.7474,0.14409 -4.2491,-0.67247 -1.3525,-0.73544 -1.9699,-0.8559 -2.1984,-0.42892 -0.2158,0.40322 0.2528,1.22185 1.2236,2.13767 1.0482,0.9888 2.3302,1.67874 3.7127,1.998 0.7748,0.17892 2.3169,0.10821 3.1112,-0.14266 z m 3.1112,-9.05781 c 0.7474,-0.32736 1.6422,-1.26672 2.828,-2.96909 0.8827,-1.26727 1.029,-1.67129 0.86,-2.37574 -0.074,-0.30947 -0.2154,-0.56687 -0.4404,-0.80345 -0.412,-0.43307 -0.1,-0.42831 -5.4506,-0.083 -3.0528,0.19702 -4.1422,0.29703 -4.3596,0.4002 -0.7926,0.37613 -0.8852,1.70213 -0.1766,2.52997 0.1726,0.20157 0.7994,0.73841 1.3931,1.19297 2.8668,2.1952 4.0668,2.66837 5.3461,2.1081 z m -29.8407,-11.33203 c 0.1321,-0.0685 0.4532,-0.38743 0.7137,-0.70885 2.8652,-3.5352 7.3881,-4.9368 11.7928,-3.65441 1.8246,0.53121 3.3319,1.43353 4.9956,2.99043 0.7336,0.68652 1.0625,0.80485 1.5689,0.56453 0.683,-0.32409 0.7989,-0.8655 0.4246,-1.98276 -0.5903,-1.76215 -1.5351,-3.3153 -2.8267,-4.64709 -1.6339,-1.68482 -3.4261,-2.69134 -5.6328,-3.16342 -0.8994,-0.19241 -3.0401,-0.21559 -3.8626,-0.0418 -3.2982,0.69689 -5.9722,2.77832 -7.4959,5.83474 -0.4975,0.99802 -0.9269,2.29159 -1.084,3.26551 -0.1277,0.79151 0,1.20587 0.4633,1.48752 0.3463,0.21111 0.6129,0.22683 0.9431,0.0556 z m 31.9943,-3.47726 c 2.2558,-2.25579 4.8764,-3.29185 7.891,-3.11972 2.1848,0.12474 4.2878,0.9468 5.9814,2.3382 1.0947,0.8993 1.2615,1.00538 1.5806,1.00538 0.3876,0 0.8149,-0.36357 0.8885,-0.75585 0.07,-0.37261 -0.1811,-1.16117 -0.6806,-2.13777 -2.1015,-4.10933 -6.6054,-6.19184 -10.9636,-5.06936 -3.2736,0.84313 -5.8632,3.47066 -6.7062,6.80444 -0.2246,0.88808 -0.2323,1.08399 -0.056,1.42521 0.1713,0.33128 0.3621,0.4384 0.787,0.44175 0.3179,0.002 0.4103,-0.0649 1.2777,-0.93228 z"
       id="path1092" /><path
       style="display:inline;fill:#4c4f69;stroke-width:0.0888906;fill-opacity:1"
       d="m 1747.4159,633.51576 c -1.3473,-0.0449 -4.2763,-0.28501 -5.8223,-0.47735 -7.9684,-0.99136 -15.3838,-3.27063 -22.6005,-6.9467 -1.6549,-0.84299 -1.9334,-1.01367 -1.9334,-1.18506 0,-0.23722 0.3449,-2.63279 0.6583,-4.57239 0.7707,-4.76936 1.8827,-9.57727 3.2037,-13.85153 0.3204,-1.03665 0.5825,-1.91422 0.5825,-1.95014 -10e-5,-0.0359 -0.3301,-0.24249 -0.7334,-0.45905 -4.8489,-2.60374 -9.0555,-6.2555 -12.0387,-10.45091 -1.8648,-2.62264 -3.482,-5.9312 -4.4363,-9.07618 -1.909,-6.29122 -2.1268,-13.89395 -0.6096,-21.27997 1.1318,-5.50954 3.2553,-10.68453 6.1565,-15.00359 l 0.4351,-0.64774 -0.2546,-1.04118 c -0.9823,-4.01673 -1.7053,-8.19689 -2.1326,-12.33029 -0.2328,-2.2512 -0.2792,-6.47177 -0.086,-7.86682 0.3133,-2.2688 0.5879,-3.08083 1.2866,-3.80434 0.819,-0.84819 1.6754,-1.13581 3.1202,-1.04799 3.7403,0.22734 7.628,1.25162 10.8089,2.84783 3.0931,1.5521 5.3069,3.23085 8.0282,6.08763 l 0.8769,0.92059 1.5676,-0.50318 c 5.1997,-1.66902 10.1796,-2.40701 16.1901,-2.3993 4.5464,0.006 8.0067,0.38537 11.7616,1.29002 0.8221,0.19807 1.5077,0.34608 1.5235,0.32891 0.016,-0.0172 0.3471,-0.44156 0.7364,-0.9431 2.016,-2.59728 4.1379,-4.5845 6.69,-6.26547 1.1147,-0.73419 3.7498,-2.05338 5.1113,-2.55882 1.4466,-0.53705 3.6521,-1.15836 4.3111,-1.21448 1.1523,-0.0981 2.3408,0.43184 3.0431,1.35691 0.6206,0.81755 1.5244,3.06411 2.0716,5.14922 1.2116,4.61704 1.3321,10.03556 0.3396,15.27595 l -0.2332,1.23122 0.9305,0.9466 c 7.5971,7.72826 11.6238,17.44835 11.3289,27.34711 -0.16,5.36941 -1.3616,10.1184 -3.7888,14.97381 -1.9932,3.98715 -4.0653,6.8313 -7.4207,10.18582 -2.386,2.38527 -4.4064,4.0249 -7.1154,5.77447 -0.5867,0.3789 -1.0809,0.7014 -1.0983,0.71668 -0.017,0.0153 0.091,0.66026 0.2412,1.43329 1.3334,6.87072 2.0241,13.22232 2.3634,21.73238 l 0.045,1.1265 -1.0423,0.50379 c -9.8194,4.74631 -20.798,7.02211 -32.0651,6.64685 z m 9.2891,-16.89565 c 1.2292,-0.42239 2.2412,-0.98545 3.2445,-1.80526 1.053,-0.86037 1.9866,-1.93152 2.4075,-2.76213 l 0.2155,-0.42524 0.886,0.58049 c 1.1116,0.72833 2.6535,1.46511 3.9215,1.87387 1.5086,0.48632 1.8393,0.33684 2.1279,-0.96179 0.4846,-2.18048 0.3729,-4.94166 -0.3046,-7.52863 -0.3361,-1.28352 -0.6444,-1.47278 -1.769,-1.08589 -1.8602,0.64002 -3.4589,1.69427 -4.7069,3.10405 l -0.421,0.47556 -0.6007,-0.44457 c -1.8548,-1.37282 -4.0032,-2.40292 -6.9938,-3.35341 -1.9848,-0.63079 -2.1342,-0.54819 -2.4163,1.3357 -0.2106,1.40686 -0.211,3.99015 0,5.24455 0.3014,1.79785 0.8354,3.47522 1.5839,4.97526 0.5496,1.10144 0.6037,1.1432 1.404,1.0853 0.3887,-0.0281 0.9817,-0.15647 1.4222,-0.30786 z m 4.3112,-36.37719 c 0.9115,-0.2879 1.5882,-0.65147 2.4953,-1.34066 0.9903,-0.75247 1.3225,-0.84224 2.2274,-0.6019 0.8606,0.22857 1.9258,0.3002 2.5452,0.17116 1.5762,-0.32833 3.1395,-1.71811 4.0213,-3.57499 0.5001,-1.05315 0.6249,-2.1269 0.2632,-2.26568 -0.2107,-0.0809 -0.5325,0.1891 -1.0486,0.8798 -0.8994,1.20358 -1.4177,1.553 -2.8005,1.88782 -1.1731,0.28403 -2.0667,0.0961 -3.5217,-0.74056 -0.438,-0.25184 -0.8661,-0.45789 -0.9514,-0.45789 -0.3237,0 -0.6129,0.22282 -1.2212,0.94089 -1.1304,1.33447 -2.1532,1.96089 -3.609,2.21039 -1.7562,0.30096 -2.7474,0.14409 -4.2491,-0.67247 -1.3525,-0.73544 -1.9699,-0.8559 -2.1984,-0.42892 -0.2158,0.40322 0.2528,1.22185 1.2236,2.13767 1.0482,0.9888 2.3302,1.67874 3.7127,1.998 0.7748,0.17892 2.3169,0.10821 3.1112,-0.14266 z m 3.1112,-9.05781 c 0.7474,-0.32736 1.6422,-1.26672 2.828,-2.96909 0.8827,-1.26727 1.029,-1.67129 0.86,-2.37574 -0.074,-0.30947 -0.2154,-0.56687 -0.4404,-0.80345 -0.412,-0.43307 -0.1,-0.42831 -5.4506,-0.083 -3.0528,0.19702 -4.1422,0.29703 -4.3596,0.4002 -0.7926,0.37613 -0.8852,1.70213 -0.1766,2.52997 0.1726,0.20157 0.7994,0.73841 1.3931,1.19297 2.8668,2.1952 4.0668,2.66837 5.3461,2.1081 z m -29.8407,-11.33203 c 0.1321,-0.0685 0.4532,-0.38743 0.7137,-0.70885 2.8652,-3.5352 7.3881,-4.9368 11.7928,-3.65441 1.8246,0.53121 3.3319,1.43353 4.9956,2.99043 0.7336,0.68652 1.0625,0.80485 1.5689,0.56453 0.683,-0.32409 0.7989,-0.8655 0.4246,-1.98276 -0.5903,-1.76215 -1.5351,-3.3153 -2.8267,-4.64709 -1.6339,-1.68482 -3.4261,-2.69134 -5.6328,-3.16342 -0.8994,-0.19241 -3.0401,-0.21559 -3.8626,-0.0418 -3.2982,0.69689 -5.9722,2.77832 -7.4959,5.83474 -0.4975,0.99802 -0.9269,2.29159 -1.084,3.26551 -0.1277,0.79151 0,1.20587 0.4633,1.48752 0.3463,0.21111 0.6129,0.22683 0.9431,0.0556 z m 31.9943,-3.47726 c 2.2558,-2.25579 4.8764,-3.29185 7.891,-3.11972 2.1848,0.12474 4.2878,0.9468 5.9814,2.3382 1.0947,0.8993 1.2615,1.00538 1.5806,1.00538 0.3876,0 0.8149,-0.36357 0.8885,-0.75585 0.07,-0.37261 -0.1811,-1.16117 -0.6806,-2.13777 -2.1015,-4.10933 -6.6054,-6.19184 -10.9636,-5.06936 -3.2736,0.84313 -5.8632,3.47066 -6.7062,6.80444 -0.2246,0.88808 -0.2323,1.08399 -0.056,1.42521 0.1713,0.33128 0.3621,0.4384 0.787,0.44175 0.3179,0.002 0.4103,-0.0649 1.2777,-0.93228 z"
       id="path1094" /></g></svg>
